  0
SECTION
  2
HEADER
  9
$ACADVER
  1
AC1014
  9
$HANDSEED
  5
FFFF
  9
$INSUNITS
 70
     0
  9
$MEASUREMENT
 70
     1
  0
ENDSEC
  0
SECTION
  2
TABLES
  0
TABLE
  2
VPORT
  5
8
330
0
100
AcDbSymbolTable
 70
     4
  0
VPORT
  5
2E
330
8
100
AcDbSymbolTableRecord
100
AcDbViewportTableRecord
  2
*ACTIVE
 70
     0
 10
0.0
 20
0.0
 11
1.0
 21
1.0
 12
210.0
 22
148.5
 13
0.0
 23
0.0
 14
10.0
 24
10.0
 15
10.0
 25
10.0
 16
0.0
 26
0.0
 36
1.0
 17
0.0
 27
0.0
 37
0.0
 40
341.0
 41
1.24
 42
50.0
 43
0.0
 44
0.0
 50
0.0
 51
0.0
 71
     0
 72
   100
 73
     1
 74
     3
 75
     0
 76
     0
 77
     0
 78
     0
  0
ENDTAB
  0
TABLE
  2
LTYPE
  5
5
330
0
100
AcDbSymbolTable
 70
     1
  0
LTYPE
  5
14
330
5
100
AcDbSymbolTableRecord
100
AcDbLinetypeTableRecord
  2
BYBLOCK
 70
     0
  3

 72
    65
 73
     0
 40
0.0
  0
LTYPE
  5
15
330
5
100
AcDbSymbolTableRecord
100
AcDbLinetypeTableRecord
  2
BYLAYER
 70
     0
  3

 72
    65
 73
     0
 40
0.0
  0
LTYPE
  5
16
330
5
100
AcDbSymbolTableRecord
100
AcDbLinetypeTableRecord
  2
CONTINUOUS
 70
     0
  3
Solid line
 72
    65
 73
     0
 40
0.0
  0
ENDTAB
  0
TABLE
  2
LAYER
  5
2
100
AcDbSymbolTable
 70
1
  0
LAYER
  5
50
100
AcDbSymbolTableRecord
100
AcDbLayerTableRecord
  2
0
 70
0
  6
CONTINUOUS
  0
ENDTAB
  0
TABLE
  2
STYLE
  5
3
330
0
100
AcDbSymbolTable
 70
     1
  0
STYLE
  5
11
330
3
100
AcDbSymbolTableRecord
100
AcDbTextStyleTableRecord
  2
STANDARD
 70
     0
 40
0.0
 41
1.0
 50
0.0
 71
     0
 42
2.5
  3
txt
  4

  0
ENDTAB
  0
TABLE
  2
VIEW
  5
6
330
0
100
AcDbSymbolTable
 70
     0
  0
ENDTAB
  0
TABLE
  2
UCS
  5
7
330
0
100
AcDbSymbolTable
 70
     0
  0
ENDTAB
  0
TABLE
  2
APPID
  5
9
330
0
100
AcDbSymbolTable
 70
     2
  0
APPID
  5
12
330
9
100
AcDbSymbolTableRecord
100
AcDbRegAppTableRecord
  2
ACAD
 70
     0
  0
ENDTAB
  0
TABLE
  2
DIMSTYLE
  5
A
330
0
100
AcDbSymbolTable
 70
     1
  0
DIMSTYLE
105
27
330
A
100
AcDbSymbolTableRecord
100
AcDbDimStyleTableRecord
  2
ISO-25
 70
     0
  3

  4

  5

  6

  7

 40
1.0
 41
2.5
 42
0.625
 43
3.75
 44
1.25
 45
0.0
 46
0.0
 47
0.0
 48
0.0
140
2.5
141
2.5
142
0.0
143
0.03937007874016
144
1.0
145
0.0
146
1.0
147
0.625
 71
     0
 72
     0
 73
     0
 74
     0
 75
     0
 76
     0
 77
     1
 78
     8
170
     0
171
     3
172
     1
173
     0
174
     0
175
     0
176
     0
177
     0
178
     0
270
     2
271
     2
272
     2
273
     2
274
     3
340
11
275
     0
280
     0
281
     0
282
     0
283
     0
284
     8
285
     0
286
     0
287
     3
288
     0
  0
ENDTAB
  0
TABLE
  2
BLOCK_RECORD
  5
1
330
0
100
AcDbSymbolTable
 70
     1
  0
BLOCK_RECORD
  5
1F
330
1
100
AcDbSymbolTableRecord
100
AcDbBlockTableRecord
  2
*MODEL_SPACE
  0
BLOCK_RECORD
  5
1B
330
1
100
AcDbSymbolTableRecord
100
AcDbBlockTableRecord
  2
*PAPER_SPACE
  0
ENDTAB
  0
ENDSEC
  0
SECTION
  2
BLOCKS
  0
BLOCK
  5
20
330
1F
100
AcDbEntity
  8
0
100
AcDbBlockBegin
  2
*MODEL_SPACE
 70
     0
 10
0.0
 20
0.0
 30
0.0
  3
*MODEL_SPACE
  1

  0
ENDBLK
  5
21
330
1F
100
AcDbEntity
  8
0
100
AcDbBlockEnd
  0
BLOCK
  5
1C
330
1B
100
AcDbEntity
 67
     1
  8
0
100
AcDbBlockBegin
  2
*PAPER_SPACE
  1

  0
ENDBLK
  5
1D
330
1B
100
AcDbEntity
 67
     1
  8
0
100
AcDbBlockEnd
  0
ENDSEC
  0
SECTION
  2
ENTITIES
  0
SPLINE
  5
100
100
AcDbEntity
  8
0
 62
7
100
AcDbSpline
 70
8
 71
3
 72
8
 73
4
 74
0
 40
0
 40
0
 40
0
 40
0
 40
1
 40
1
 40
1
 40
1
 10
212.648360
 20
348.142350
 30
0.0
 10
212.648360
 20
348.308350
 30
0.0
 10
212.514360
 20
348.442350
 30
0.0
 10
212.348360
 20
348.442350
 30
0.0
  0
SPLINE
  5
101
100
AcDbEntity
  8
0
 62
7
100
AcDbSpline
 70
8
 71
3
 72
8
 73
4
 74
0
 40
0
 40
0
 40
0
 40
0
 40
1
 40
1
 40
1
 40
1
 10
212.348360
 20
348.442350
 30
0.0
 10
212.183360
 20
348.442350
 30
0.0
 10
212.048360
 20
348.308350
 30
0.0
 10
212.048360
 20
348.142350
 30
0.0
  0
SPLINE
  5
102
100
AcDbEntity
  8
0
 62
7
100
AcDbSpline
 70
8
 71
3
 72
8
 73
4
 74
0
 40
0
 40
0
 40
0
 40
0
 40
1
 40
1
 40
1
 40
1
 10
212.048360
 20
348.142350
 30
0.0
 10
212.048360
 20
347.977350
 30
0.0
 10
212.183360
 20
347.842350
 30
0.0
 10
212.348360
 20
347.842350
 30
0.0
  0
SPLINE
  5
103
100
AcDbEntity
  8
0
 62
7
100
AcDbSpline
 70
8
 71
3
 72
8
 73
4
 74
0
 40
0
 40
0
 40
0
 40
0
 40
1
 40
1
 40
1
 40
1
 10
212.348360
 20
347.842350
 30
0.0
 10
212.514360
 20
347.842350
 30
0.0
 10
212.648360
 20
347.977350
 30
0.0
 10
212.648360
 20
348.142350
 30
0.0
  0
SPLINE
  5
104
100
AcDbEntity
  8
0
 62
7
100
AcDbSpline
 70
8
 71
3
 72
8
 73
4
 74
0
 40
0
 40
0
 40
0
 40
0
 40
1
 40
1
 40
1
 40
1
 10
410.898360
 20
356.142350
 30
0.0
 10
410.898360
 20
356.308350
 30
0.0
 10
410.763950
 20
356.442350
 30
0.0
 10
410.598360
 20
356.442350
 30
0.0
  0
SPLINE
  5
105
100
AcDbEntity
  8
0
 62
7
100
AcDbSpline
 70
8
 71
3
 72
8
 73
4
 74
0
 40
0
 40
0
 40
0
 40
0
 40
1
 40
1
 40
1
 40
1
 10
410.598360
 20
356.442350
 30
0.0
 10
410.432770
 20
356.442350
 30
0.0
 10
410.298360
 20
356.308350
 30
0.0
 10
410.298360
 20
356.142350
 30
0.0
  0
SPLINE
  5
106
100
AcDbEntity
  8
0
 62
7
100
AcDbSpline
 70
8
 71
3
 72
8
 73
4
 74
0
 40
0
 40
0
 40
0
 40
0
 40
1
 40
1
 40
1
 40
1
 10
410.298360
 20
356.142350
 30
0.0
 10
410.298360
 20
355.977350
 30
0.0
 10
410.432770
 20
355.842350
 30
0.0
 10
410.598360
 20
355.842350
 30
0.0
  0
SPLINE
  5
107
100
AcDbEntity
  8
0
 62
7
100
AcDbSpline
 70
8
 71
3
 72
8
 73
4
 74
0
 40
0
 40
0
 40
0
 40
0
 40
1
 40
1
 40
1
 40
1
 10
410.598360
 20
355.842350
 30
0.0
 10
410.763950
 20
355.842350
 30
0.0
 10
410.898360
 20
355.977350
 30
0.0
 10
410.898360
 20
356.142350
 30
0.0
  0
LWPOLYLINE
  5
108
100
AcDbEntity
  8
0
 62
7
100
AcDbPolyline
 90
1
 70
1
 10
212.648360
 20
348.142350
 30
0.0
  0
SPLINE
  5
109
100
AcDbEntity
  8
0
 62
7
100
AcDbSpline
 70
8
 71
3
 72
8
 73
4
 74
0
 40
0
 40
0
 40
0
 40
0
 40
1
 40
1
 40
1
 40
1
 10
215.648360
 20
348.142350
 30
0.0
 10
215.648360
 20
348.308350
 30
0.0
 10
215.514360
 20
348.442350
 30
0.0
 10
215.348360
 20
348.442350
 30
0.0
  0
SPLINE
  5
10a
100
AcDbEntity
  8
0
 62
7
100
AcDbSpline
 70
8
 71
3
 72
8
 73
4
 74
0
 40
0
 40
0
 40
0
 40
0
 40
1
 40
1
 40
1
 40
1
 10
215.348360
 20
348.442350
 30
0.0
 10
215.183360
 20
348.442350
 30
0.0
 10
215.048360
 20
348.308350
 30
0.0
 10
215.048360
 20
348.142350
 30
0.0
  0
SPLINE
  5
10b
100
AcDbEntity
  8
0
 62
7
100
AcDbSpline
 70
8
 71
3
 72
8
 73
4
 74
0
 40
0
 40
0
 40
0
 40
0
 40
1
 40
1
 40
1
 40
1
 10
215.048360
 20
348.142350
 30
0.0
 10
215.048360
 20
347.977350
 30
0.0
 10
215.183360
 20
347.842350
 30
0.0
 10
215.348360
 20
347.842350
 30
0.0
  0
SPLINE
  5
10c
100
AcDbEntity
  8
0
 62
7
100
AcDbSpline
 70
8
 71
3
 72
8
 73
4
 74
0
 40
0
 40
0
 40
0
 40
0
 40
1
 40
1
 40
1
 40
1
 10
215.348360
 20
347.842350
 30
0.0
 10
215.514360
 20
347.842350
 30
0.0
 10
215.648360
 20
347.977350
 30
0.0
 10
215.648360
 20
348.142350
 30
0.0
  0
LWPOLYLINE
  5
10d
100
AcDbEntity
  8
0
 62
7
100
AcDbPolyline
 90
1
 70
1
 10
410.898360
 20
356.142350
 30
0.0
  0
SPLINE
  5
10e
100
AcDbEntity
  8
0
 62
7
100
AcDbSpline
 70
8
 71
3
 72
8
 73
4
 74
0
 40
0
 40
0
 40
0
 40
0
 40
1
 40
1
 40
1
 40
1
 10
394.148360
 20
348.132350
 30
0.0
 10
394.148360
 20
348.298350
 30
0.0
 10
394.013960
 20
348.432350
 30
0.0
 10
393.848360
 20
348.432350
 30
0.0
  0
SPLINE
  5
10f
100
AcDbEntity
  8
0
 62
7
100
AcDbSpline
 70
8
 71
3
 72
8
 73
4
 74
0
 40
0
 40
0
 40
0
 40
0
 40
1
 40
1
 40
1
 40
1
 10
393.848360
 20
348.432350
 30
0.0
 10
393.682760
 20
348.432350
 30
0.0
 10
393.548360
 20
348.298350
 30
0.0
 10
393.548360
 20
348.132350
 30
0.0
  0
SPLINE
  5
110
100
AcDbEntity
  8
0
 62
7
100
AcDbSpline
 70
8
 71
3
 72
8
 73
4
 74
0
 40
0
 40
0
 40
0
 40
0
 40
1
 40
1
 40
1
 40
1
 10
393.548360
 20
348.132350
 30
0.0
 10
393.548360
 20
347.967350
 30
0.0
 10
393.682760
 20
347.832350
 30
0.0
 10
393.848360
 20
347.832350
 30
0.0
  0
SPLINE
  5
111
100
AcDbEntity
  8
0
 62
7
100
AcDbSpline
 70
8
 71
3
 72
8
 73
4
 74
0
 40
0
 40
0
 40
0
 40
0
 40
1
 40
1
 40
1
 40
1
 10
393.848360
 20
347.832350
 30
0.0
 10
394.013960
 20
347.832350
 30
0.0
 10
394.148360
 20
347.967350
 30
0.0
 10
394.148360
 20
348.132350
 30
0.0
  0
LWPOLYLINE
  5
112
100
AcDbEntity
  8
0
 62
7
100
AcDbPolyline
 90
1
 70
1
 10
215.648360
 20
348.142350
 30
0.0
  0
SPLINE
  5
113
100
AcDbEntity
  8
0
 62
7
100
AcDbSpline
 70
8
 71
3
 72
8
 73
4
 74
0
 40
0
 40
0
 40
0
 40
0
 40
1
 40
1
 40
1
 40
1
 10
314.830360
 20
398.642350
 30
0.0
 10
314.830360
 20
399.470350
 30
0.0
 10
314.158360
 20
400.142350
 30
0.0
 10
313.330360
 20
400.142350
 30
0.0
  0
SPLINE
  5
114
100
AcDbEntity
  8
0
 62
7
100
AcDbSpline
 70
8
 71
3
 72
8
 73
4
 74
0
 40
0
 40
0
 40
0
 40
0
 40
1
 40
1
 40
1
 40
1
 10
313.330360
 20
400.142350
 30
0.0
 10
312.502460
 20
400.142350
 30
0.0
 10
311.830360
 20
399.470350
 30
0.0
 10
311.830360
 20
398.642350
 30
0.0
  0
SPLINE
  5
115
100
AcDbEntity
  8
0
 62
7
100
AcDbSpline
 70
8
 71
3
 72
8
 73
4
 74
0
 40
0
 40
0
 40
0
 40
0
 40
1
 40
1
 40
1
 40
1
 10
311.830360
 20
398.642350
 30
0.0
 10
311.830360
 20
397.814350
 30
0.0
 10
312.502460
 20
397.142350
 30
0.0
 10
313.330360
 20
397.142350
 30
0.0
  0
SPLINE
  5
116
100
AcDbEntity
  8
0
 62
7
100
AcDbSpline
 70
8
 71
3
 72
8
 73
4
 74
0
 40
0
 40
0
 40
0
 40
0
 40
1
 40
1
 40
1
 40
1
 10
313.330360
 20
397.142350
 30
0.0
 10
314.158360
 20
397.142350
 30
0.0
 10
314.830360
 20
397.814350
 30
0.0
 10
314.830360
 20
398.642350
 30
0.0
  0
LWPOLYLINE
  5
117
100
AcDbEntity
  8
0
 62
7
100
AcDbPolyline
 90
1
 70
1
 10
394.148360
 20
348.132350
 30
0.0
  0
LWPOLYLINE
  5
118
100
AcDbEntity
  8
0
 62
7
100
AcDbPolyline
 90
1
 70
1
 10
314.830360
 20
398.642350
 30
0.0
  0
SPLINE
  5
119
100
AcDbEntity
  8
0
 62
7
100
AcDbSpline
 70
8
 71
3
 72
8
 73
4
 74
0
 40
0
 40
0
 40
0
 40
0
 40
1
 40
1
 40
1
 40
1
 10
273.178360
 20
412.243350
 30
0.0
 10
274.031360
 20
412.015350
 30
0.0
 10
274.909360
 20
412.522350
 30
0.0
 10
275.137360
 20
413.375350
 30
0.0
  0
SPLINE
  5
11a
100
AcDbEntity
  8
0
 62
7
100
AcDbSpline
 70
8
 71
3
 72
8
 73
4
 74
0
 40
0
 40
0
 40
0
 40
0
 40
1
 40
1
 40
1
 40
1
 10
275.143360
 20
452.292350
 30
0.0
 10
275.372360
 20
453.146350
 30
0.0
 10
274.865360
 20
454.023350
 30
0.0
 10
274.012360
 20
454.252350
 30
0.0
  0
LWPOLYLINE
  5
11b
100
AcDbEntity
  8
0
 62
7
100
AcDbPolyline
 90
2
 70
0
 10
263.182360
 20
309.918350
 30
0.0
 10
263.182360
 20
306.918350
 30
0.0
  0
LWPOLYLINE
  5
11c
100
AcDbEntity
  8
0
 62
7
100
AcDbPolyline
 90
2
 70
0
 10
268.848360
 20
316.392350
 30
0.0
 10
254.848360
 20
316.392350
 30
0.0
  0
SPLINE
  5
11d
100
AcDbEntity
  8
0
 62
7
100
AcDbSpline
 70
8
 71
3
 72
8
 73
4
 74
0
 40
0
 40
0
 40
0
 40
0
 40
1
 40
1
 40
1
 40
1
 10
205.348360
 20
278.392350
 30
0.0
 10
205.348360
 20
275.632350
 30
0.0
 10
207.588360
 20
273.392350
 30
0.0
 10
210.348360
 20
273.392350
 30
0.0
  0
LWPOLYLINE
  5
11e
100
AcDbEntity
  8
0
 62
7
100
AcDbPolyline
 90
1
 70
1
 10
254.848360
 20
331.392350
 30
0.0
  0
SPLINE
  5
11f
100
AcDbEntity
  8
0
 62
7
100
AcDbSpline
 70
8
 71
3
 72
8
 73
4
 74
0
 40
0
 40
0
 40
0
 40
0
 40
1
 40
1
 40
1
 40
1
 10
274.006360
 20
415.335350
 30
0.0
 10
273.153360
 20
415.563350
 30
0.0
 10
272.275360
 20
415.057350
 30
0.0
 10
272.047360
 20
414.203350
 30
0.0
  0
LWPOLYLINE
  5
120
100
AcDbEntity
  8
0
 62
7
100
AcDbPolyline
 90
2
 70
0
 10
261.271360
 20
309.918350
 30
0.0
 10
261.271360
 20
312.918350
 30
0.0
  0
SPLINE
  5
121
100
AcDbEntity
  8
0
 62
7
100
AcDbSpline
 70
8
 71
3
 72
8
 73
4
 74
0
 40
0
 40
0
 40
0
 40
0
 40
1
 40
1
 40
1
 40
1
 10
338.023860
 20
454.236350
 30
0.0
 10
337.170260
 20
454.464350
 30
0.0
 10
336.292860
 20
453.958350
 30
0.0
 10
336.064260
 20
453.104350
 30
0.0
  0
LWPOLYLINE
  5
122
100
AcDbEntity
  8
0
 62
7
100
AcDbPolyline
 90
2
 70
0
 10
301.348360
 20
398.642350
 30
0.0
 10
301.348360
 20
391.908350
 30
0.0
  0
LWPOLYLINE
  5
123
100
AcDbEntity
  8
0
 62
7
100
AcDbPolyline
 90
2
 70
0
 10
296.348360
 20
391.892350
 30
0.0
 10
301.348360
 20
391.908350
 30
0.0
  0
LWPOLYLINE
  5
124
100
AcDbEntity
  8
0
 62
7
100
AcDbPolyline
 90
2
 70
0
 10
234.671360
 20
309.918350
 30
0.0
 10
234.671360
 20
306.918350
 30
0.0
  0
LWPOLYLINE
  5
125
100
AcDbEntity
  8
0
 62
7
100
AcDbPolyline
 90
2
 70
0
 10
236.671360
 20
267.918350
 30
0.0
 10
234.671360
 20
267.918350
 30
0.0
  0
LWPOLYLINE
  5
126
100
AcDbEntity
  8
0
 62
7
100
AcDbPolyline
 90
2
 70
0
 10
261.271360
 20
309.918350
 30
0.0
 10
263.182360
 20
309.918350
 30
0.0
  0
LWPOLYLINE
  5
127
100
AcDbEntity
  8
0
 62
7
100
AcDbPolyline
 90
2
 70
0
 10
236.671360
 20
309.918350
 30
0.0
 10
234.671360
 20
309.918350
 30
0.0
  0
SPLINE
  5
128
100
AcDbEntity
  8
0
 62
7
100
AcDbSpline
 70
8
 71
3
 72
8
 73
4
 74
0
 40
0
 40
0
 40
0
 40
0
 40
1
 40
1
 40
1
 40
1
 10
322.319560
 20
398.642350
 30
0.0
 10
322.319560
 20
399.470350
 30
0.0
 10
321.647460
 20
400.142350
 30
0.0
 10
320.819560
 20
400.142350
 30
0.0
  0
SPLINE
  5
129
100
AcDbEntity
  8
0
 62
7
100
AcDbSpline
 70
8
 71
3
 72
8
 73
4
 74
0
 40
0
 40
0
 40
0
 40
0
 40
1
 40
1
 40
1
 40
1
 10
320.819560
 20
400.142350
 30
0.0
 10
319.991560
 20
400.142350
 30
0.0
 10
319.319560
 20
399.470350
 30
0.0
 10
319.319560
 20
398.642350
 30
0.0
  0
SPLINE
  5
12a
100
AcDbEntity
  8
0
 62
7
100
AcDbSpline
 70
8
 71
3
 72
8
 73
4
 74
0
 40
0
 40
0
 40
0
 40
0
 40
1
 40
1
 40
1
 40
1
 10
319.319560
 20
398.642350
 30
0.0
 10
319.319560
 20
397.814350
 30
0.0
 10
319.991560
 20
397.142350
 30
0.0
 10
320.819560
 20
397.142350
 30
0.0
  0
SPLINE
  5
12b
100
AcDbEntity
  8
0
 62
7
100
AcDbSpline
 70
8
 71
3
 72
8
 73
4
 74
0
 40
0
 40
0
 40
0
 40
0
 40
1
 40
1
 40
1
 40
1
 10
320.819560
 20
397.142350
 30
0.0
 10
321.647460
 20
397.142350
 30
0.0
 10
322.319560
 20
397.814350
 30
0.0
 10
322.319560
 20
398.642350
 30
0.0
  0
LWPOLYLINE
  5
12c
100
AcDbEntity
  8
0
 62
7
100
AcDbPolyline
 90
2
 70
0
 10
215.348360
 20
335.892350
 30
0.0
 10
212.348360
 20
335.892350
 30
0.0
  0
LWPOLYLINE
  5
12d
100
AcDbEntity
  8
0
 62
7
100
AcDbPolyline
 90
1
 70
1
 10
322.319560
 20
398.642350
 30
0.0
  0
SPLINE
  5
12e
100
AcDbEntity
  8
0
 62
7
100
AcDbSpline
 70
8
 71
3
 72
8
 73
4
 74
0
 40
0
 40
0
 40
0
 40
0
 40
1
 40
1
 40
1
 40
1
 10
336.010060
 20
452.652350
 30
0.0
 10
336.026960
 20
451.942350
 30
0.0
 10
336.509660
 20
451.328350
 30
0.0
 10
337.195460
 20
451.144350
 30
0.0
  0
LWPOLYLINE
  5
12f
100
AcDbEntity
  8
0
 62
7
100
AcDbPolyline
 90
2
 70
0
 10
291.348360
 20
404.892350
 30
0.0
 10
301.348360
 20
404.892350
 30
0.0
  0
SPLINE
  5
130
100
AcDbEntity
  8
0
 62
7
100
AcDbSpline
 70
8
 71
3
 72
8
 73
4
 74
0
 40
0
 40
0
 40
0
 40
0
 40
1
 40
1
 40
1
 40
1
 10
212.848360
 20
328.392350
 30
0.0
 10
208.708360
 20
328.392350
 30
0.0
 10
205.348360
 20
325.032350
 30
0.0
 10
205.348360
 20
320.892350
 30
0.0
  0
SPLINE
  5
131
100
AcDbEntity
  8
0
 62
7
100
AcDbSpline
 70
8
 71
3
 72
8
 73
4
 74
0
 40
0
 40
0
 40
0
 40
0
 40
1
 40
1
 40
1
 40
1
 10
273.184360
 20
451.161350
 30
0.0
 10
274.037360
 20
450.932350
 30
0.0
 10
274.914360
 20
451.439350
 30
0.0
 10
275.143360
 20
452.292350
 30
0.0
  0
SPLINE
  5
132
100
AcDbEntity
  8
0
 62
7
100
AcDbSpline
 70
8
 71
3
 72
8
 73
4
 74
0
 40
0
 40
0
 40
0
 40
0
 40
1
 40
1
 40
1
 40
1
 10
274.229360
 20
458.965350
 30
0.0
 10
271.722360
 20
458.956350
 30
0.0
 10
269.690360
 20
456.919350
 30
0.0
 10
269.687360
 20
454.410350
 30
0.0
  0
LWPOLYLINE
  5
133
100
AcDbEntity
  8
0
 62
7
100
AcDbPolyline
 90
1
 70
1
 10
254.848360
 20
335.892350
 30
0.0
  0
SPLINE
  5
134
100
AcDbEntity
  8
0
 62
7
100
AcDbSpline
 70
8
 71
3
 72
8
 73
4
 74
0
 40
0
 40
0
 40
0
 40
0
 40
1
 40
1
 40
1
 40
1
 10
271.992360
 20
413.751350
 30
0.0
 10
272.009360
 20
413.041350
 30
0.0
 10
272.492360
 20
412.427350
 30
0.0
 10
273.178360
 20
412.243350
 30
0.0
  0
LWPOLYLINE
  5
135
100
AcDbEntity
  8
0
 62
7
100
AcDbPolyline
 90
2
 70
0
 10
236.671360
 20
265.018350
 30
0.0
 10
261.271360
 20
265.018350
 30
0.0
  0
LWPOLYLINE
  5
136
100
AcDbEntity
  8
0
 62
7
100
AcDbPolyline
 90
1
 70
1
 10
257.848360
 20
335.892350
 30
0.0
  0
LWPOLYLINE
  5
137
100
AcDbEntity
  8
0
 62
7
100
AcDbPolyline
 90
2
 70
0
 10
261.271360
 20
270.918350
 30
0.0
 10
263.271360
 20
270.918350
 30
0.0
  0
LWPOLYLINE
  5
138
100
AcDbEntity
  8
0
 62
7
100
AcDbPolyline
 90
2
 70
0
 10
291.348360
 20
391.892350
 30
0.0
 10
291.348360
 20
404.892350
 30
0.0
  0
SPLINE
  5
139
100
AcDbEntity
  8
0
 62
7
100
AcDbSpline
 70
8
 71
3
 72
8
 73
4
 74
0
 40
0
 40
0
 40
0
 40
0
 40
1
 40
1
 40
1
 40
1
 10
272.052360
 20
453.121350
 30
0.0
 10
272.013360
 20
452.973350
 30
0.0
 10
271.994360
 20
452.821350
 30
0.0
 10
271.998360
 20
452.668350
 30
0.0
  0
LWPOLYLINE
  5
13a
100
AcDbEntity
  8
0
 62
7
100
AcDbPolyline
 90
2
 70
0
 10
268.883360
 20
335.892350
 30
0.0
 10
271.883360
 20
335.892350
 30
0.0
  0
LWPOLYLINE
  5
13b
100
AcDbEntity
  8
0
 62
7
100
AcDbPolyline
 90
2
 70
0
 10
236.671360
 20
312.918350
 30
0.0
 10
261.271360
 20
312.918350
 30
0.0
  0
SPLINE
  5
13c
100
AcDbEntity
  8
0
 62
7
100
AcDbSpline
 70
8
 71
3
 72
8
 73
4
 74
0
 40
0
 40
0
 40
0
 40
0
 40
1
 40
1
 40
1
 40
1
 10
226.848360
 20
344.392350
 30
0.0
 10
226.848360
 20
341.632350
 30
0.0
 10
229.088360
 20
339.392350
 30
0.0
 10
231.848360
 20
339.392350
 30
0.0
  0
SPLINE
  5
13d
100
AcDbEntity
  8
0
 62
7
100
AcDbSpline
 70
8
 71
3
 72
8
 73
4
 74
0
 40
0
 40
0
 40
0
 40
0
 40
1
 40
1
 40
1
 40
1
 10
242.848360
 20
339.392350
 30
0.0
 10
245.608360
 20
339.392350
 30
0.0
 10
247.848360
 20
341.632350
 30
0.0
 10
247.848360
 20
344.392350
 30
0.0
  0
SPLINE
  5
13e
100
AcDbEntity
  8
0
 62
7
100
AcDbSpline
 70
8
 71
3
 72
8
 73
4
 74
0
 40
0
 40
0
 40
0
 40
0
 40
1
 40
1
 40
1
 40
1
 10
274.012360
 20
454.252350
 30
0.0
 10
273.158360
 20
454.480350
 30
0.0
 10
272.281360
 20
453.974350
 30
0.0
 10
272.052360
 20
453.121350
 30
0.0
  0
LWPOLYLINE
  5
13f
100
AcDbEntity
  8
0
 62
7
100
AcDbPolyline
 90
2
 70
0
 10
291.348360
 20
391.892350
 30
0.0
 10
291.348360
 20
404.892350
 30
0.0
  0
LWPOLYLINE
  5
140
100
AcDbEntity
  8
0
 62
7
100
AcDbPolyline
 90
2
 70
0
 10
215.348360
 20
331.392350
 30
0.0
 10
215.348360
 20
335.892350
 30
0.0
  0
LWPOLYLINE
  5
141
100
AcDbEntity
  8
0
 62
7
100
AcDbPolyline
 90
2
 70
0
 10
372.271260
 20
270.918350
 30
0.0
 10
374.271260
 20
270.918350
 30
0.0
  0
LWPOLYLINE
  5
142
100
AcDbEntity
  8
0
 62
7
100
AcDbPolyline
 90
2
 70
0
 10
236.671360
 20
309.918350
 30
0.0
 10
236.671360
 20
312.918350
 30
0.0
  0
LWPOLYLINE
  5
143
100
AcDbEntity
  8
0
 62
7
100
AcDbPolyline
 90
2
 70
0
 10
301.348360
 20
391.908350
 30
0.0
 10
301.348360
 20
404.892350
 30
0.0
  0
LWPOLYLINE
  5
144
100
AcDbEntity
  8
0
 62
7
100
AcDbPolyline
 90
2
 70
0
 10
263.182360
 20
309.918350
 30
0.0
 10
261.271360
 20
309.918350
 30
0.0
  0
LWPOLYLINE
  5
145
100
AcDbEntity
  8
0
 62
7
100
AcDbPolyline
 90
2
 70
0
 10
222.848360
 20
331.392350
 30
0.0
 10
215.348360
 20
331.392350
 30
0.0
  0
LWPOLYLINE
  5
146
100
AcDbEntity
  8
0
 62
7
100
AcDbPolyline
 90
2
 70
0
 10
247.348360
 20
328.392350
 30
0.0
 10
220.861360
 20
293.707350
 30
0.0
  0
LWPOLYLINE
  5
147
100
AcDbEntity
  8
0
 62
7
100
AcDbPolyline
 90
2
 70
0
 10
296.348360
 20
391.892350
 30
0.0
 10
291.348360
 20
391.892350
 30
0.0
  0
LWPOLYLINE
  5
148
100
AcDbEntity
  8
0
 62
7
100
AcDbPolyline
 90
2
 70
0
 10
242.848360
 20
339.392350
 30
0.0
 10
231.848360
 20
339.392350
 30
0.0
  0
SPLINE
  5
149
100
AcDbEntity
  8
0
 62
7
100
AcDbSpline
 70
8
 71
3
 72
8
 73
4
 74
0
 40
0
 40
0
 40
0
 40
0
 40
1
 40
1
 40
1
 40
1
 10
337.195460
 20
451.144350
 30
0.0
 10
338.049160
 20
450.916350
 30
0.0
 10
338.926460
 20
451.423350
 30
0.0
 10
339.155060
 20
452.276350
 30
0.0
  0
LWPOLYLINE
  5
14a
100
AcDbEntity
  8
0
 62
7
100
AcDbPolyline
 90
2
 70
0
 10
261.271360
 20
265.018350
 30
0.0
 10
261.271360
 20
267.918350
 30
0.0
  0
SPLINE
  5
14b
100
AcDbEntity
  8
0
 62
7
100
AcDbSpline
 70
8
 71
3
 72
8
 73
4
 74
0
 40
0
 40
0
 40
0
 40
0
 40
1
 40
1
 40
1
 40
1
 10
272.047360
 20
414.203350
 30
0.0
 10
272.007360
 20
414.056350
 30
0.0
 10
271.989360
 20
413.903350
 30
0.0
 10
271.992360
 20
413.751350
 30
0.0
  0
LWPOLYLINE
  5
14c
100
AcDbEntity
  8
0
 62
7
100
AcDbPolyline
 90
2
 70
0
 10
374.271260
 20
267.918350
 30
0.0
 10
374.271260
 20
270.918350
 30
0.0
  0
LWPOLYLINE
  5
14d
100
AcDbEntity
  8
0
 62
7
100
AcDbPolyline
 90
2
 70
0
 10
261.271360
 20
309.918350
 30
0.0
 10
263.182360
 20
309.918350
 30
0.0
  0
SPLINE
  5
14e
100
AcDbEntity
  8
0
 62
7
100
AcDbSpline
 70
8
 71
3
 72
8
 73
4
 74
0
 40
0
 40
0
 40
0
 40
0
 40
1
 40
1
 40
1
 40
1
 10
341.728660
 20
454.405350
 30
0.0
 10
341.680960
 20
456.868350
 30
0.0
 10
339.677760
 20
458.854350
 30
0.0
 10
337.208860
 20
458.875350
 30
0.0
  0
LWPOLYLINE
  5
14f
100
AcDbEntity
  8
0
 62
7
100
AcDbPolyline
 90
2
 70
0
 10
345.671260
 20
309.918350
 30
0.0
 10
345.671260
 20
306.918350
 30
0.0
  0
LWPOLYLINE
  5
150
100
AcDbEntity
  8
0
 62
7
100
AcDbPolyline
 90
2
 70
0
 10
372.271260
 20
309.918350
 30
0.0
 10
374.181960
 20
309.918350
 30
0.0
  0
LWPOLYLINE
  5
151
100
AcDbEntity
  8
0
 62
7
100
AcDbPolyline
 90
2
 70
0
 10
393.848360
 20
331.392350
 30
0.0
 10
393.848360
 20
335.892350
 30
0.0
  0
LWPOLYLINE
  5
152
100
AcDbEntity
  8
0
 62
7
100
AcDbPolyline
 90
2
 70
0
 10
268.883360
 20
360.592350
 30
0.0
 10
271.883360
 20
360.592350
 30
0.0
  0
LWPOLYLINE
  5
153
100
AcDbEntity
  8
0
 62
7
100
AcDbPolyline
 90
1
 70
1
 10
351.348360
 20
360.392350
 30
0.0
  0
SPLINE
  5
154
100
AcDbEntity
  8
0
 62
7
100
AcDbSpline
 70
8
 71
3
 72
8
 73
4
 74
0
 40
0
 40
0
 40
0
 40
0
 40
1
 40
1
 40
1
 40
1
 10
339.262560
 20
412.758350
 30
0.0
 10
339.501460
 20
413.609350
 30
0.0
 10
339.005660
 20
414.492350
 30
0.0
 10
338.154960
 20
414.731350
 30
0.0
  0
SPLINE
  5
155
100
AcDbEntity
  8
0
 62
7
100
AcDbSpline
 70
8
 71
3
 72
8
 73
4
 74
0
 40
0
 40
0
 40
0
 40
0
 40
1
 40
1
 40
1
 40
1
 10
339.155060
 20
452.276350
 30
0.0
 10
339.383760
 20
453.130350
 30
0.0
 10
338.877260
 20
454.007350
 30
0.0
 10
338.023860
 20
454.236350
 30
0.0
  0
LWPOLYLINE
  5
156
100
AcDbEntity
  8
0
 62
7
100
AcDbPolyline
 90
2
 70
0
 10
215.348360
 20
360.392350
 30
0.0
 10
215.348360
 20
379.392350
 30
0.0
  0
LWPOLYLINE
  5
157
100
AcDbEntity
  8
0
 62
7
100
AcDbPolyline
 90
2
 70
0
 10
318.100860
 20
459.039350
 30
0.0
 10
293.107360
 20
459.039350
 30
0.0
  0
LWPOLYLINE
  5
158
100
AcDbEntity
  8
0
 62
7
100
AcDbPolyline
 90
2
 70
0
 10
261.271360
 20
267.918350
 30
0.0
 10
263.271360
 20
267.918350
 30
0.0
  0
LWPOLYLINE
  5
159
100
AcDbEntity
  8
0
 62
7
100
AcDbPolyline
 90
2
 70
0
 10
304.598360
 20
339.892350
 30
0.0
 10
294.098360
 20
339.892350
 30
0.0
  0
SPLINE
  5
15a
100
AcDbEntity
  8
0
 62
7
100
AcDbSpline
 70
8
 71
3
 72
8
 73
4
 74
0
 40
0
 40
0
 40
0
 40
0
 40
1
 40
1
 40
1
 40
1
 10
275.137360
 20
413.375350
 30
0.0
 10
275.366360
 20
414.229350
 30
0.0
 10
274.860360
 20
415.106350
 30
0.0
 10
274.006360
 20
415.335350
 30
0.0
  0
SPLINE
  5
15b
100
AcDbEntity
  8
0
 62
7
100
AcDbSpline
 70
8
 71
3
 72
8
 73
4
 74
0
 40
0
 40
0
 40
0
 40
0
 40
1
 40
1
 40
1
 40
1
 10
305.846360
 20
369.142350
 30
0.0
 10
305.846360
 20
369.832350
 30
0.0
 10
305.286360
 20
370.392350
 30
0.0
 10
304.596360
 20
370.392350
 30
0.0
  0
SPLINE
  5
15c
100
AcDbEntity
  8
0
 62
7
100
AcDbSpline
 70
8
 71
3
 72
8
 73
4
 74
0
 40
0
 40
0
 40
0
 40
0
 40
1
 40
1
 40
1
 40
1
 10
304.596360
 20
370.392350
 30
0.0
 10
303.906360
 20
370.392350
 30
0.0
 10
303.346360
 20
369.832350
 30
0.0
 10
303.346360
 20
369.142350
 30
0.0
  0
SPLINE
  5
15d
100
AcDbEntity
  8
0
 62
7
100
AcDbSpline
 70
8
 71
3
 72
8
 73
4
 74
0
 40
0
 40
0
 40
0
 40
0
 40
1
 40
1
 40
1
 40
1
 10
303.346360
 20
369.142350
 30
0.0
 10
303.346360
 20
368.452350
 30
0.0
 10
303.906360
 20
367.892350
 30
0.0
 10
304.596360
 20
367.892350
 30
0.0
  0
SPLINE
  5
15e
100
AcDbEntity
  8
0
 62
7
100
AcDbSpline
 70
8
 71
3
 72
8
 73
4
 74
0
 40
0
 40
0
 40
0
 40
0
 40
1
 40
1
 40
1
 40
1
 10
304.596360
 20
367.892350
 30
0.0
 10
305.286360
 20
367.892350
 30
0.0
 10
305.846360
 20
368.452350
 30
0.0
 10
305.846360
 20
369.142350
 30
0.0
  0
LWPOLYLINE
  5
15f
100
AcDbEntity
  8
0
 62
7
100
AcDbPolyline
 90
2
 70
0
 10
268.848360
 20
316.392350
 30
0.0
 10
268.848360
 20
273.892350
 30
0.0
  0
SPLINE
  5
160
100
AcDbEntity
  8
0
 62
7
100
AcDbSpline
 70
8
 71
3
 72
8
 73
4
 74
0
 40
0
 40
0
 40
0
 40
0
 40
1
 40
1
 40
1
 40
1
 10
271.998360
 20
452.668350
 30
0.0
 10
272.015360
 20
451.959350
 30
0.0
 10
272.498360
 20
451.345350
 30
0.0
 10
273.184360
 20
451.161350
 30
0.0
  0
LWPOLYLINE
  5
161
100
AcDbEntity
  8
0
 62
7
100
AcDbPolyline
 90
1
 70
1
 10
305.846360
 20
369.142350
 30
0.0
  0
LWPOLYLINE
  5
162
100
AcDbEntity
  8
0
 62
7
100
AcDbPolyline
 90
2
 70
0
 10
354.348360
 20
316.392350
 30
0.0
 10
354.348360
 20
331.392350
 30
0.0
  0
LWPOLYLINE
  5
163
100
AcDbEntity
  8
0
 62
7
100
AcDbPolyline
 90
2
 70
0
 10
258.098360
 20
400.392350
 30
0.0
 10
255.098360
 20
400.392350
 30
0.0
  0
LWPOLYLINE
  5
164
100
AcDbEntity
  8
0
 62
7
100
AcDbPolyline
 90
2
 70
0
 10
294.098360
 20
301.892350
 30
0.0
 10
315.098360
 20
301.892350
 30
0.0
  0
LWPOLYLINE
  5
165
100
AcDbEntity
  8
0
 62
7
100
AcDbPolyline
 90
2
 70
0
 10
382.348360
 20
344.392350
 30
0.0
 10
382.348360
 20
367.392350
 30
0.0
  0
SPLINE
  5
166
100
AcDbEntity
  8
0
 62
7
100
AcDbSpline
 70
8
 71
3
 72
8
 73
4
 74
0
 40
0
 40
0
 40
0
 40
0
 40
1
 40
1
 40
1
 40
1
 10
349.348360
 20
348.142350
 30
0.0
 10
349.348360
 20
348.832350
 30
0.0
 10
348.788360
 20
349.392350
 30
0.0
 10
348.098360
 20
349.392350
 30
0.0
  0
SPLINE
  5
167
100
AcDbEntity
  8
0
 62
7
100
AcDbSpline
 70
8
 71
3
 72
8
 73
4
 74
0
 40
0
 40
0
 40
0
 40
0
 40
1
 40
1
 40
1
 40
1
 10
348.098360
 20
349.392350
 30
0.0
 10
347.408360
 20
349.392350
 30
0.0
 10
346.848360
 20
348.832350
 30
0.0
 10
346.848360
 20
348.142350
 30
0.0
  0
SPLINE
  5
168
100
AcDbEntity
  8
0
 62
7
100
AcDbSpline
 70
8
 71
3
 72
8
 73
4
 74
0
 40
0
 40
0
 40
0
 40
0
 40
1
 40
1
 40
1
 40
1
 10
346.848360
 20
348.142350
 30
0.0
 10
346.848360
 20
347.452350
 30
0.0
 10
347.408360
 20
346.892350
 30
0.0
 10
348.098360
 20
346.892350
 30
0.0
  0
SPLINE
  5
169
100
AcDbEntity
  8
0
 62
7
100
AcDbSpline
 70
8
 71
3
 72
8
 73
4
 74
0
 40
0
 40
0
 40
0
 40
0
 40
1
 40
1
 40
1
 40
1
 10
348.098360
 20
346.892350
 30
0.0
 10
348.788360
 20
346.892350
 30
0.0
 10
349.348360
 20
347.452350
 30
0.0
 10
349.348360
 20
348.142350
 30
0.0
  0
LWPOLYLINE
  5
16a
100
AcDbEntity
  8
0
 62
7
100
AcDbPolyline
 90
2
 70
0
 10
268.846360
 20
233.897350
 30
0.0
 10
292.596360
 20
233.897350
 30
0.0
  0
LWPOLYLINE
  5
16b
100
AcDbEntity
  8
0
 62
7
100
AcDbPolyline
 90
1
 70
1
 10
349.348360
 20
348.142350
 30
0.0
  0
LWPOLYLINE
  5
16c
100
AcDbEntity
  8
0
 62
7
100
AcDbPolyline
 90
2
 70
0
 10
340.383160
 20
335.892350
 30
0.0
 10
337.383160
 20
335.892350
 30
0.0
  0
LWPOLYLINE
  5
16d
100
AcDbEntity
  8
0
 62
7
100
AcDbPolyline
 90
2
 70
0
 10
212.348360
 20
360.392350
 30
0.0
 10
215.348360
 20
360.392350
 30
0.0
  0
LWPOLYLINE
  5
16e
100
AcDbEntity
  8
0
 62
7
100
AcDbPolyline
 90
2
 70
0
 10
268.846360
 20
233.897350
 30
0.0
 10
268.846360
 20
273.897350
 30
0.0
  0
LWPOLYLINE
  5
16f
100
AcDbEntity
  8
0
 62
7
100
AcDbPolyline
 90
1
 70
1
 10
354.348360
 20
335.892350
 30
0.0
  0
LWPOLYLINE
  5
170
100
AcDbEntity
  8
0
 62
7
100
AcDbPolyline
 90
2
 70
0
 10
354.348360
 20
316.392350
 30
0.0
 10
340.348360
 20
316.392350
 30
0.0
  0
SPLINE
  5
171
100
AcDbEntity
  8
0
 62
7
100
AcDbSpline
 70
8
 71
3
 72
8
 73
4
 74
0
 40
0
 40
0
 40
0
 40
0
 40
1
 40
1
 40
1
 40
1
 10
337.291260
 20
411.647350
 30
0.0
 10
338.142560
 20
411.409350
 30
0.0
 10
339.025160
 20
411.907350
 30
0.0
 10
339.262560
 20
412.758350
 30
0.0
  0
LWPOLYLINE
  5
172
100
AcDbEntity
  8
0
 62
7
100
AcDbPolyline
 90
2
 70
0
 10
340.348360
 20
273.892350
 30
0.0
 10
340.348360
 20
316.392350
 30
0.0
  0
LWPOLYLINE
  5
173
100
AcDbEntity
  8
0
 62
7
100
AcDbPolyline
 90
2
 70
0
 10
234.671360
 20
270.918350
 30
0.0
 10
236.671360
 20
270.918350
 30
0.0
  0
SPLINE
  5
174
100
AcDbEntity
  8
0
 62
7
100
AcDbSpline
 70
8
 71
3
 72
8
 73
4
 74
0
 40
0
 40
0
 40
0
 40
0
 40
1
 40
1
 40
1
 40
1
 10
336.120660
 20
413.166350
 30
0.0
 10
336.130660
 20
412.456350
 30
0.0
 10
336.607260
 20
411.837350
 30
0.0
 10
337.291260
 20
411.647350
 30
0.0
  0
LWPOLYLINE
  5
175
100
AcDbEntity
  8
0
 62
7
100
AcDbPolyline
 90
2
 70
0
 10
263.271360
 20
267.918350
 30
0.0
 10
263.271360
 20
270.918350
 30
0.0
  0
SPLINE
  5
176
100
AcDbEntity
  8
0
 62
7
100
AcDbSpline
 70
8
 71
3
 72
8
 73
4
 74
0
 40
0
 40
0
 40
0
 40
0
 40
1
 40
1
 40
1
 40
1
 10
217.848360
 20
273.392350
 30
0.0
 10
219.228360
 20
273.392350
 30
0.0
 10
220.348360
 20
274.512350
 30
0.0
 10
220.348360
 20
275.892350
 30
0.0
  0
LWPOLYLINE
  5
177
100
AcDbEntity
  8
0
 62
7
100
AcDbPolyline
 90
2
 70
0
 10
242.848360
 20
372.392350
 30
0.0
 10
231.848360
 20
372.392350
 30
0.0
  0
LWPOLYLINE
  5
178
100
AcDbEntity
  8
0
 62
7
100
AcDbPolyline
 90
2
 70
0
 10
261.271360
 20
270.918350
 30
0.0
 10
261.271360
 20
306.918350
 30
0.0
  0
LWPOLYLINE
  5
179
100
AcDbEntity
  8
0
 62
7
100
AcDbPolyline
 90
2
 70
0
 10
255.098360
 20
400.392350
 30
0.0
 10
255.098360
 20
407.505350
 30
0.0
  0
LWPOLYLINE
  5
17a
100
AcDbEntity
  8
0
 62
7
100
AcDbPolyline
 90
2
 70
0
 10
263.182360
 20
306.918350
 30
0.0
 10
261.271360
 20
306.918350
 30
0.0
  0
LWPOLYLINE
  5
17b
100
AcDbEntity
  8
0
 62
7
100
AcDbPolyline
 90
2
 70
0
 10
317.332260
 20
364.892350
 30
0.0
 10
317.339260
 20
364.892350
 30
0.0
  0
LWPOLYLINE
  5
17c
100
AcDbEntity
  8
0
 62
7
100
AcDbPolyline
 90
2
 70
0
 10
354.098360
 20
399.395350
 30
0.0
 10
351.098360
 20
399.392350
 30
0.0
  0
LWPOLYLINE
  5
17d
100
AcDbEntity
  8
0
 62
7
100
AcDbPolyline
 90
2
 70
0
 10
317.332260
 20
367.892350
 30
0.0
 10
317.339260
 20
367.892350
 30
0.0
  0
LWPOLYLINE
  5
17e
100
AcDbEntity
  8
0
 62
7
100
AcDbPolyline
 90
2
 70
0
 10
345.671260
 20
306.918350
 30
0.0
 10
347.671260
 20
306.918350
 30
0.0
  0
LWPOLYLINE
  5
17f
100
AcDbEntity
  8
0
 62
7
100
AcDbPolyline
 90
2
 70
0
 10
215.315670
 20
379.392350
 30
0.0
 10
254.778610
 20
379.392350
 30
0.0
  0
LWPOLYLINE
  5
180
100
AcDbEntity
  8
0
 62
7
100
AcDbPolyline
 90
2
 70
0
 10
236.671360
 20
265.018350
 30
0.0
 10
236.671360
 20
267.918350
 30
0.0
  0
LWPOLYLINE
  5
181
100
AcDbEntity
  8
0
 62
7
100
AcDbPolyline
 90
2
 70
0
 10
210.348360
 20
273.392350
 30
0.0
 10
217.848360
 20
273.392350
 30
0.0
  0
LWPOLYLINE
  5
182
100
AcDbEntity
  8
0
 62
7
100
AcDbPolyline
 90
2
 70
0
 10
388.848360
 20
275.892350
 30
0.0
 10
388.848360
 20
292.190350
 30
0.0
  0
SPLINE
  5
183
100
AcDbEntity
  8
0
 62
7
100
AcDbSpline
 70
8
 71
3
 72
8
 73
4
 74
0
 40
0
 40
0
 40
0
 40
0
 40
1
 40
1
 40
1
 40
1
 10
218.098360
 20
348.132350
 30
0.0
 10
218.098360
 20
348.822350
 30
0.0
 10
217.538360
 20
349.382350
 30
0.0
 10
216.848360
 20
349.382350
 30
0.0
  0
SPLINE
  5
184
100
AcDbEntity
  8
0
 62
7
100
AcDbSpline
 70
8
 71
3
 72
8
 73
4
 74
0
 40
0
 40
0
 40
0
 40
0
 40
1
 40
1
 40
1
 40
1
 10
216.848360
 20
349.382350
 30
0.0
 10
216.158360
 20
349.382350
 30
0.0
 10
215.598360
 20
348.822350
 30
0.0
 10
215.598360
 20
348.132350
 30
0.0
  0
SPLINE
  5
185
100
AcDbEntity
  8
0
 62
7
100
AcDbSpline
 70
8
 71
3
 72
8
 73
4
 74
0
 40
0
 40
0
 40
0
 40
0
 40
1
 40
1
 40
1
 40
1
 10
215.598360
 20
348.132350
 30
0.0
 10
215.598360
 20
347.442350
 30
0.0
 10
216.158360
 20
346.882350
 30
0.0
 10
216.848360
 20
346.882350
 30
0.0
  0
SPLINE
  5
186
100
AcDbEntity
  8
0
 62
7
100
AcDbSpline
 70
8
 71
3
 72
8
 73
4
 74
0
 40
0
 40
0
 40
0
 40
0
 40
1
 40
1
 40
1
 40
1
 10
216.848360
 20
346.882350
 30
0.0
 10
217.538360
 20
346.882350
 30
0.0
 10
218.098360
 20
347.442350
 30
0.0
 10
218.098360
 20
348.132350
 30
0.0
  0
LWPOLYLINE
  5
187
100
AcDbEntity
  8
0
 62
7
100
AcDbPolyline
 90
2
 70
0
 10
271.596360
 20
245.647350
 30
0.0
 10
271.596360
 20
263.647350
 30
0.0
  0
LWPOLYLINE
  5
188
100
AcDbEntity
  8
0
 62
7
100
AcDbPolyline
 90
1
 70
1
 10
218.098360
 20
348.132350
 30
0.0
  0
LWPOLYLINE
  5
189
100
AcDbEntity
  8
0
 62
7
100
AcDbPolyline
 90
2
 70
0
 10
304.598360
 20
339.892350
 30
0.0
 10
315.098360
 20
339.892350
 30
0.0
  0
LWPOLYLINE
  5
18a
100
AcDbEntity
  8
0
 62
7
100
AcDbPolyline
 90
2
 70
0
 10
354.098360
 20
407.526350
 30
0.0
 10
354.098360
 20
399.395350
 30
0.0
  0
LWPOLYLINE
  5
18b
100
AcDbEntity
  8
0
 62
7
100
AcDbPolyline
 90
2
 70
0
 10
234.671360
 20
267.918350
 30
0.0
 10
234.671360
 20
270.918350
 30
0.0
  0
LWPOLYLINE
  5
18c
100
AcDbEntity
  8
0
 62
7
100
AcDbPolyline
 90
2
 70
0
 10
318.100860
 20
459.039350
 30
0.0
 10
337.208960
 20
458.875350
 30
0.0
  0
LWPOLYLINE
  5
18d
100
AcDbEntity
  8
0
 62
7
100
AcDbPolyline
 90
2
 70
0
 10
372.271260
 20
270.918350
 30
0.0
 10
372.271260
 20
306.918350
 30
0.0
  0
SPLINE
  5
18e
100
AcDbEntity
  8
0
 62
7
100
AcDbSpline
 70
8
 71
3
 72
8
 73
4
 74
0
 40
0
 40
0
 40
0
 40
0
 40
1
 40
1
 40
1
 40
1
 10
231.848360
 20
372.392350
 30
0.0
 10
229.088360
 20
372.392350
 30
0.0
 10
226.848360
 20
370.152350
 30
0.0
 10
226.848360
 20
367.392350
 30
0.0
  0
LWPOLYLINE
  5
18f
100
AcDbEntity
  8
0
 62
7
100
AcDbPolyline
 90
2
 70
0
 10
403.848360
 20
320.892350
 30
0.0
 10
403.848360
 20
278.392350
 30
0.0
  0
LWPOLYLINE
  5
190
100
AcDbEntity
  8
0
 62
7
100
AcDbPolyline
 90
2
 70
0
 10
374.181960
 20
309.918350
 30
0.0
 10
374.181960
 20
306.918350
 30
0.0
  0
SPLINE
  5
191
100
AcDbEntity
  8
0
 62
7
100
AcDbSpline
 70
8
 71
3
 72
8
 73
4
 74
0
 40
0
 40
0
 40
0
 40
0
 40
1
 40
1
 40
1
 40
1
 10
388.848360
 20
292.190350
 30
0.0
 10
388.848360
 20
292.760350
 30
0.0
 10
388.656960
 20
293.286350
 30
0.0
 10
388.335060
 20
293.707350
 30
0.0
  0
LWPOLYLINE
  5
192
100
AcDbEntity
  8
0
 62
7
100
AcDbPolyline
 90
1
 70
1
 10
388.848360
 20
292.190350
 30
0.0
  0
SPLINE
  5
193
100
AcDbEntity
  8
0
 62
7
100
AcDbSpline
 70
8
 71
3
 72
8
 73
4
 74
0
 40
0
 40
0
 40
0
 40
0
 40
1
 40
1
 40
1
 40
1
 10
336.183660
 20
413.620350
 30
0.0
 10
336.142260
 20
413.473350
 30
0.0
 10
336.122260
 20
413.321350
 30
0.0
 10
336.124060
 20
413.169350
 30
0.0
  0
SPLINE
  5
194
100
AcDbEntity
  8
0
 62
7
100
AcDbSpline
 70
8
 71
3
 72
8
 73
4
 74
0
 40
0
 40
0
 40
0
 40
0
 40
1
 40
1
 40
1
 40
1
 10
336.064260
 20
453.104350
 30
0.0
 10
336.024660
 20
452.957350
 30
0.0
 10
336.006360
 20
452.804350
 30
0.0
 10
336.009960
 20
452.652350
 30
0.0
  0
LWPOLYLINE
  5
195
100
AcDbEntity
  8
0
 62
7
100
AcDbPolyline
 90
2
 70
0
 10
354.348360
 20
331.392350
 30
0.0
 10
354.348360
 20
316.392350
 30
0.0
  0
SPLINE
  5
196
100
AcDbEntity
  8
0
 62
7
100
AcDbSpline
 70
8
 71
3
 72
8
 73
4
 74
0
 40
0
 40
0
 40
0
 40
0
 40
1
 40
1
 40
1
 40
1
 10
247.848360
 20
367.392350
 30
0.0
 10
247.848360
 20
370.152350
 30
0.0
 10
245.608360
 20
372.392350
 30
0.0
 10
242.848360
 20
372.392350
 30
0.0
  0
LWPOLYLINE
  5
197
100
AcDbEntity
  8
0
 62
7
100
AcDbPolyline
 90
2
 70
0
 10
386.348360
 20
331.392350
 30
0.0
 10
393.848360
 20
331.392350
 30
0.0
  0
LWPOLYLINE
  5
198
100
AcDbEntity
  8
0
 62
7
100
AcDbPolyline
 90
2
 70
0
 10
393.848360
 20
335.892350
 30
0.0
 10
396.848360
 20
335.892350
 30
0.0
  0
LWPOLYLINE
  5
199
100
AcDbEntity
  8
0
 62
7
100
AcDbPolyline
 90
2
 70
0
 10
366.348360
 20
339.392350
 30
0.0
 10
377.348360
 20
339.392350
 30
0.0
  0
SPLINE
  5
19a
100
AcDbEntity
  8
0
 62
7
100
AcDbSpline
 70
8
 71
3
 72
8
 73
4
 74
0
 40
0
 40
0
 40
0
 40
0
 40
1
 40
1
 40
1
 40
1
 10
220.861360
 20
293.707350
 30
0.0
 10
220.539360
 20
293.286350
 30
0.0
 10
220.348360
 20
292.760350
 30
0.0
 10
220.348360
 20
292.190350
 30
0.0
  0
LWPOLYLINE
  5
19b
100
AcDbEntity
  8
0
 62
7
100
AcDbPolyline
 90
1
 70
1
 10
351.348360
 20
335.892350
 30
0.0
  0
LWPOLYLINE
  5
19c
100
AcDbEntity
  8
0
 62
7
100
AcDbPolyline
 90
2
 70
0
 10
347.671260
 20
270.918350
 30
0.0
 10
347.671260
 20
306.918350
 30
0.0
  0
SPLINE
  5
19d
100
AcDbEntity
  8
0
 62
7
100
AcDbSpline
 70
8
 71
3
 72
8
 73
4
 74
0
 40
0
 40
0
 40
0
 40
0
 40
1
 40
1
 40
1
 40
1
 10
366.348360
 20
372.392350
 30
0.0
 10
363.588560
 20
372.392350
 30
0.0
 10
361.348360
 20
370.152350
 30
0.0
 10
361.348360
 20
367.392350
 30
0.0
  0
LWPOLYLINE
  5
19e
100
AcDbEntity
  8
0
 62
7
100
AcDbPolyline
 90
2
 70
0
 10
372.271260
 20
267.918350
 30
0.0
 10
374.271260
 20
267.918350
 30
0.0
  0
LWPOLYLINE
  5
19f
100
AcDbEntity
  8
0
 62
7
100
AcDbPolyline
 90
2
 70
0
 10
393.848360
 20
360.392350
 30
0.0
 10
393.848360
 20
379.392350
 30
0.0
  0
SPLINE
  5
1a0
100
AcDbEntity
  8
0
 62
7
100
AcDbSpline
 70
8
 71
3
 72
8
 73
4
 74
0
 40
0
 40
0
 40
0
 40
0
 40
1
 40
1
 40
1
 40
1
 10
393.598360
 20
348.132350
 30
0.0
 10
393.598360
 20
348.822350
 30
0.0
 10
393.038360
 20
349.382350
 30
0.0
 10
392.348360
 20
349.382350
 30
0.0
  0
SPLINE
  5
1a1
100
AcDbEntity
  8
0
 62
7
100
AcDbSpline
 70
8
 71
3
 72
8
 73
4
 74
0
 40
0
 40
0
 40
0
 40
0
 40
1
 40
1
 40
1
 40
1
 10
392.348360
 20
349.382350
 30
0.0
 10
391.658360
 20
349.382350
 30
0.0
 10
391.098360
 20
348.822350
 30
0.0
 10
391.098360
 20
348.132350
 30
0.0
  0
SPLINE
  5
1a2
100
AcDbEntity
  8
0
 62
7
100
AcDbSpline
 70
8
 71
3
 72
8
 73
4
 74
0
 40
0
 40
0
 40
0
 40
0
 40
1
 40
1
 40
1
 40
1
 10
391.098360
 20
348.132350
 30
0.0
 10
391.098360
 20
347.442350
 30
0.0
 10
391.658360
 20
346.882350
 30
0.0
 10
392.348360
 20
346.882350
 30
0.0
  0
SPLINE
  5
1a3
100
AcDbEntity
  8
0
 62
7
100
AcDbSpline
 70
8
 71
3
 72
8
 73
4
 74
0
 40
0
 40
0
 40
0
 40
0
 40
1
 40
1
 40
1
 40
1
 10
392.348360
 20
346.882350
 30
0.0
 10
393.038360
 20
346.882350
 30
0.0
 10
393.598360
 20
347.442350
 30
0.0
 10
393.598360
 20
348.132350
 30
0.0
  0
LWPOLYLINE
  5
1a4
100
AcDbEntity
  8
0
 62
7
100
AcDbPolyline
 90
2
 70
0
 10
222.848360
 20
331.392350
 30
0.0
 10
222.848360
 20
328.392350
 30
0.0
  0
LWPOLYLINE
  5
1a5
100
AcDbEntity
  8
0
 62
7
100
AcDbPolyline
 90
1
 70
1
 10
393.598360
 20
348.132350
 30
0.0
  0
SPLINE
  5
1a6
100
AcDbEntity
  8
0
 62
7
100
AcDbSpline
 70
8
 71
3
 72
8
 73
4
 74
0
 40
0
 40
0
 40
0
 40
0
 40
1
 40
1
 40
1
 40
1
 10
335.595860
 20
243.647350
 30
0.0
 10
336.699860
 20
243.647350
 30
0.0
 10
337.595860
 20
244.543350
 30
0.0
 10
337.595860
 20
245.647350
 30
0.0
  0
LWPOLYLINE
  5
1a7
100
AcDbEntity
  8
0
 62
7
100
AcDbPolyline
 90
2
 70
0
 10
366.348360
 20
372.392350
 30
0.0
 10
377.348360
 20
372.392350
 30
0.0
  0
LWPOLYLINE
  5
1a8
100
AcDbEntity
  8
0
 62
7
100
AcDbPolyline
 90
2
 70
0
 10
337.595860
 20
263.647350
 30
0.0
 10
337.595860
 20
245.647350
 30
0.0
  0
LWPOLYLINE
  5
1a9
100
AcDbEntity
  8
0
 62
7
100
AcDbPolyline
 90
2
 70
0
 10
372.271260
 20
265.018350
 30
0.0
 10
372.271260
 20
267.918350
 30
0.0
  0
LWPOLYLINE
  5
1aa
100
AcDbEntity
  8
0
 62
7
100
AcDbPolyline
 90
2
 70
0
 10
345.671260
 20
270.918350
 30
0.0
 10
347.671260
 20
270.918350
 30
0.0
  0
LWPOLYLINE
  5
1ab
100
AcDbEntity
  8
0
 62
7
100
AcDbPolyline
 90
2
 70
0
 10
372.271260
 20
309.918350
 30
0.0
 10
372.271260
 20
312.918350
 30
0.0
  0
LWPOLYLINE
  5
1ac
100
AcDbEntity
  8
0
 62
7
100
AcDbPolyline
 90
2
 70
0
 10
345.671260
 20
267.918350
 30
0.0
 10
345.671260
 20
270.918350
 30
0.0
  0
LWPOLYLINE
  5
1ad
100
AcDbEntity
  8
0
 62
7
100
AcDbPolyline
 90
2
 70
0
 10
396.848360
 20
360.392350
 30
0.0
 10
393.848360
 20
360.392350
 30
0.0
  0
LWPOLYLINE
  5
1ae
100
AcDbEntity
  8
0
 62
7
100
AcDbPolyline
 90
2
 70
0
 10
393.848360
 20
379.392350
 30
0.0
 10
354.223360
 20
379.392350
 30
0.0
  0
SPLINE
  5
1af
100
AcDbEntity
  8
0
 62
7
100
AcDbSpline
 70
8
 71
3
 72
8
 73
4
 74
0
 40
0
 40
0
 40
0
 40
0
 40
1
 40
1
 40
1
 40
1
 10
337.595860
 20
263.647350
 30
0.0
 10
337.595860
 20
264.751350
 30
0.0
 10
336.699860
 20
265.647350
 30
0.0
 10
335.595860
 20
265.647350
 30
0.0
  0
SPLINE
  5
1b0
100
AcDbEntity
  8
0
 62
7
100
AcDbSpline
 70
8
 71
3
 72
8
 73
4
 74
0
 40
0
 40
0
 40
0
 40
0
 40
1
 40
1
 40
1
 40
1
 10
301.101360
 20
380.875350
 30
0.0
 10
301.101360
 20
385.567350
 30
0.0
 10
297.292360
 20
389.375350
 30
0.0
 10
292.601360
 20
389.375350
 30
0.0
  0
SPLINE
  5
1b1
100
AcDbEntity
  8
0
 62
7
100
AcDbSpline
 70
8
 71
3
 72
8
 73
4
 74
0
 40
0
 40
0
 40
0
 40
0
 40
1
 40
1
 40
1
 40
1
 10
292.601360
 20
389.375350
 30
0.0
 10
287.909360
 20
389.375350
 30
0.0
 10
284.101360
 20
385.567350
 30
0.0
 10
284.101360
 20
380.875350
 30
0.0
  0
SPLINE
  5
1b2
100
AcDbEntity
  8
0
 62
7
100
AcDbSpline
 70
8
 71
3
 72
8
 73
4
 74
0
 40
0
 40
0
 40
0
 40
0
 40
1
 40
1
 40
1
 40
1
 10
284.101360
 20
380.875350
 30
0.0
 10
284.101360
 20
376.183350
 30
0.0
 10
287.909360
 20
372.375350
 30
0.0
 10
292.601360
 20
372.375350
 30
0.0
  0
SPLINE
  5
1b3
100
AcDbEntity
  8
0
 62
7
100
AcDbSpline
 70
8
 71
3
 72
8
 73
4
 74
0
 40
0
 40
0
 40
0
 40
0
 40
1
 40
1
 40
1
 40
1
 10
292.601360
 20
372.375350
 30
0.0
 10
297.292360
 20
372.375350
 30
0.0
 10
301.101360
 20
376.183350
 30
0.0
 10
301.101360
 20
380.875350
 30
0.0
  0
LWPOLYLINE
  5
1b4
100
AcDbEntity
  8
0
 62
7
100
AcDbPolyline
 90
1
 70
1
 10
337.595860
 20
263.647350
 30
0.0
  0
SPLINE
  5
1b5
100
AcDbEntity
  8
0
 62
7
100
AcDbSpline
 70
8
 71
3
 72
8
 73
4
 74
0
 40
0
 40
0
 40
0
 40
0
 40
1
 40
1
 40
1
 40
1
 10
271.596360
 20
245.647350
 30
0.0
 10
271.596360
 20
244.543350
 30
0.0
 10
272.492360
 20
243.647350
 30
0.0
 10
273.596360
 20
243.647350
 30
0.0
  0
LWPOLYLINE
  5
1b6
100
AcDbEntity
  8
0
 62
7
100
AcDbPolyline
 90
1
 70
1
 10
301.101360
 20
380.875350
 30
0.0
  0
LWPOLYLINE
  5
1b7
100
AcDbEntity
  8
0
 62
7
100
AcDbPolyline
 90
2
 70
0
 10
205.348360
 20
320.892350
 30
0.0
 10
205.348360
 20
278.392350
 30
0.0
  0
SPLINE
  5
1b8
100
AcDbEntity
  8
0
 62
7
100
AcDbSpline
 70
8
 71
3
 72
8
 73
4
 74
0
 40
0
 40
0
 40
0
 40
0
 40
1
 40
1
 40
1
 40
1
 10
398.848360
 20
273.392350
 30
0.0
 10
401.608210
 20
273.392350
 30
0.0
 10
403.848360
 20
275.632350
 30
0.0
 10
403.848360
 20
278.392350
 30
0.0
  0
SPLINE
  5
1b9
100
AcDbEntity
  8
0
 62
7
100
AcDbSpline
 70
8
 71
3
 72
8
 73
4
 74
0
 40
0
 40
0
 40
0
 40
0
 40
1
 40
1
 40
1
 40
1
 10
361.348360
 20
344.392350
 30
0.0
 10
361.348360
 20
341.632350
 30
0.0
 10
363.588560
 20
339.392350
 30
0.0
 10
366.348360
 20
339.392350
 30
0.0
  0
SPLINE
  5
1ba
100
AcDbEntity
  8
0
 62
7
100
AcDbSpline
 70
8
 71
3
 72
8
 73
4
 74
0
 40
0
 40
0
 40
0
 40
0
 40
1
 40
1
 40
1
 40
1
 10
306.096360
 20
361.642350
 30
0.0
 10
306.096360
 20
362.470350
 30
0.0
 10
305.424360
 20
363.142350
 30
0.0
 10
304.596360
 20
363.142350
 30
0.0
  0
SPLINE
  5
1bb
100
AcDbEntity
  8
0
 62
7
100
AcDbSpline
 70
8
 71
3
 72
8
 73
4
 74
0
 40
0
 40
0
 40
0
 40
0
 40
1
 40
1
 40
1
 40
1
 10
304.596360
 20
363.142350
 30
0.0
 10
303.768360
 20
363.142350
 30
0.0
 10
303.096360
 20
362.470350
 30
0.0
 10
303.096360
 20
361.642350
 30
0.0
  0
SPLINE
  5
1bc
100
AcDbEntity
  8
0
 62
7
100
AcDbSpline
 70
8
 71
3
 72
8
 73
4
 74
0
 40
0
 40
0
 40
0
 40
0
 40
1
 40
1
 40
1
 40
1
 10
303.096360
 20
361.642350
 30
0.0
 10
303.096360
 20
360.814350
 30
0.0
 10
303.768360
 20
360.142350
 30
0.0
 10
304.596360
 20
360.142350
 30
0.0
  0
SPLINE
  5
1bd
100
AcDbEntity
  8
0
 62
7
100
AcDbSpline
 70
8
 71
3
 72
8
 73
4
 74
0
 40
0
 40
0
 40
0
 40
0
 40
1
 40
1
 40
1
 40
1
 10
304.596360
 20
360.142350
 30
0.0
 10
305.424360
 20
360.142350
 30
0.0
 10
306.096360
 20
360.814350
 30
0.0
 10
306.096360
 20
361.642350
 30
0.0
  0
LWPOLYLINE
  5
1be
100
AcDbEntity
  8
0
 62
7
100
AcDbPolyline
 90
1
 70
1
 10
317.332260
 20
364.892350
 30
0.0
  0
LWPOLYLINE
  5
1bf
100
AcDbEntity
  8
0
 62
7
100
AcDbPolyline
 90
1
 70
1
 10
306.096360
 20
361.642350
 30
0.0
  0
LWPOLYLINE
  5
1c0
100
AcDbEntity
  8
0
 62
7
100
AcDbPolyline
 90
2
 70
0
 10
374.181960
 20
309.918350
 30
0.0
 10
372.271260
 20
309.918350
 30
0.0
  0
SPLINE
  5
1c1
100
AcDbEntity
  8
0
 62
7
100
AcDbSpline
 70
8
 71
3
 72
8
 73
4
 74
0
 40
0
 40
0
 40
0
 40
0
 40
1
 40
1
 40
1
 40
1
 10
325.098460
 20
380.642350
 30
0.0
 10
325.098460
 20
385.334350
 30
0.0
 10
321.290160
 20
389.142350
 30
0.0
 10
316.598460
 20
389.142350
 30
0.0
  0
SPLINE
  5
1c2
100
AcDbEntity
  8
0
 62
7
100
AcDbSpline
 70
8
 71
3
 72
8
 73
4
 74
0
 40
0
 40
0
 40
0
 40
0
 40
1
 40
1
 40
1
 40
1
 10
316.598460
 20
389.142350
 30
0.0
 10
311.906660
 20
389.142350
 30
0.0
 10
308.098360
 20
385.334350
 30
0.0
 10
308.098360
 20
380.642350
 30
0.0
  0
SPLINE
  5
1c3
100
AcDbEntity
  8
0
 62
7
100
AcDbSpline
 70
8
 71
3
 72
8
 73
4
 74
0
 40
0
 40
0
 40
0
 40
0
 40
1
 40
1
 40
1
 40
1
 10
308.098360
 20
380.642350
 30
0.0
 10
308.098360
 20
375.951350
 30
0.0
 10
311.906660
 20
372.142350
 30
0.0
 10
316.598460
 20
372.142350
 30
0.0
  0
SPLINE
  5
1c4
100
AcDbEntity
  8
0
 62
7
100
AcDbSpline
 70
8
 71
3
 72
8
 73
4
 74
0
 40
0
 40
0
 40
0
 40
0
 40
1
 40
1
 40
1
 40
1
 10
316.598460
 20
372.142350
 30
0.0
 10
321.290160
 20
372.142350
 30
0.0
 10
325.098460
 20
375.951350
 30
0.0
 10
325.098460
 20
380.642350
 30
0.0
  0
LWPOLYLINE
  5
1c5
100
AcDbEntity
  8
0
 62
7
100
AcDbPolyline
 90
1
 70
1
 10
254.848360
 20
367.892350
 30
0.0
  0
LWPOLYLINE
  5
1c6
100
AcDbEntity
  8
0
 62
7
100
AcDbPolyline
 90
1
 70
1
 10
325.098460
 20
380.642350
 30
0.0
  0
SPLINE
  5
1c7
100
AcDbEntity
  8
0
 62
7
100
AcDbSpline
 70
8
 71
3
 72
8
 73
4
 74
0
 40
0
 40
0
 40
0
 40
0
 40
1
 40
1
 40
1
 40
1
 10
382.348360
 20
367.392350
 30
0.0
 10
382.348360
 20
370.152350
 30
0.0
 10
380.108160
 20
372.392350
 30
0.0
 10
377.348360
 20
372.392350
 30
0.0
  0
LWPOLYLINE
  5
1c8
100
AcDbEntity
  8
0
 62
7
100
AcDbPolyline
 90
2
 70
0
 10
222.848360
 20
328.392350
 30
0.0
 10
212.848360
 20
328.392350
 30
0.0
  0
LWPOLYLINE
  5
1c9
100
AcDbEntity
  8
0
 62
7
100
AcDbPolyline
 90
2
 70
0
 10
273.596360
 20
265.647350
 30
0.0
 10
335.595860
 20
265.647350
 30
0.0
  0
LWPOLYLINE
  5
1ca
100
AcDbEntity
  8
0
 62
7
100
AcDbPolyline
 90
2
 70
0
 10
386.348360
 20
331.392350
 30
0.0
 10
386.348360
 20
328.392350
 30
0.0
  0
LWPOLYLINE
  5
1cb
100
AcDbEntity
  8
0
 62
7
100
AcDbPolyline
 90
2
 70
0
 10
398.848360
 20
273.392350
 30
0.0
 10
391.348360
 20
273.392350
 30
0.0
  0
LWPOLYLINE
  5
1cc
100
AcDbEntity
  8
0
 62
7
100
AcDbPolyline
 90
2
 70
0
 10
361.848360
 20
328.392350
 30
0.0
 10
388.335260
 20
293.707350
 30
0.0
  0
LWPOLYLINE
  5
1cd
100
AcDbEntity
  8
0
 62
7
100
AcDbPolyline
 90
2
 70
0
 10
361.348360
 20
367.392350
 30
0.0
 10
361.348360
 20
344.392350
 30
0.0
  0
LWPOLYLINE
  5
1ce
100
AcDbEntity
  8
0
 62
7
100
AcDbPolyline
 90
2
 70
0
 10
340.383160
 20
360.592350
 30
0.0
 10
337.383160
 20
360.592350
 30
0.0
  0
LWPOLYLINE
  5
1cf
100
AcDbEntity
  8
0
 62
7
100
AcDbPolyline
 90
1
 70
1
 10
268.846360
 20
273.897350
 30
0.0
  0
LWPOLYLINE
  5
1d0
100
AcDbEntity
  8
0
 62
7
100
AcDbPolyline
 90
2
 70
0
 10
220.348360
 20
275.892350
 30
0.0
 10
220.348360
 20
292.190350
 30
0.0
  0
LWPOLYLINE
  5
1d1
100
AcDbEntity
  8
0
 62
7
100
AcDbPolyline
 90
2
 70
0
 10
372.271260
 20
309.918350
 30
0.0
 10
374.181960
 20
309.918350
 30
0.0
  0
SPLINE
  5
1d2
100
AcDbEntity
  8
0
 62
7
100
AcDbSpline
 70
8
 71
3
 72
8
 73
4
 74
0
 40
0
 40
0
 40
0
 40
0
 40
1
 40
1
 40
1
 40
1
 10
262.336360
 20
348.142350
 30
0.0
 10
262.336360
 20
348.832350
 30
0.0
 10
261.776360
 20
349.392350
 30
0.0
 10
261.086360
 20
349.392350
 30
0.0
  0
SPLINE
  5
1d3
100
AcDbEntity
  8
0
 62
7
100
AcDbSpline
 70
8
 71
3
 72
8
 73
4
 74
0
 40
0
 40
0
 40
0
 40
0
 40
1
 40
1
 40
1
 40
1
 10
261.086360
 20
349.392350
 30
0.0
 10
260.396360
 20
349.392350
 30
0.0
 10
259.836360
 20
348.832350
 30
0.0
 10
259.836360
 20
348.142350
 30
0.0
  0
SPLINE
  5
1d4
100
AcDbEntity
  8
0
 62
7
100
AcDbSpline
 70
8
 71
3
 72
8
 73
4
 74
0
 40
0
 40
0
 40
0
 40
0
 40
1
 40
1
 40
1
 40
1
 10
259.836360
 20
348.142350
 30
0.0
 10
259.836360
 20
347.452350
 30
0.0
 10
260.396360
 20
346.892350
 30
0.0
 10
261.086360
 20
346.892350
 30
0.0
  0
SPLINE
  5
1d5
100
AcDbEntity
  8
0
 62
7
100
AcDbSpline
 70
8
 71
3
 72
8
 73
4
 74
0
 40
0
 40
0
 40
0
 40
0
 40
1
 40
1
 40
1
 40
1
 10
261.086360
 20
346.892350
 30
0.0
 10
261.776360
 20
346.892350
 30
0.0
 10
262.336360
 20
347.452350
 30
0.0
 10
262.336360
 20
348.142350
 30
0.0
  0
LWPOLYLINE
  5
1d6
100
AcDbEntity
  8
0
 62
7
100
AcDbPolyline
 90
2
 70
0
 10
289.098360
 20
334.892350
 30
0.0
 10
289.098360
 20
306.892350
 30
0.0
  0
SPLINE
  5
1d7
100
AcDbEntity
  8
0
 62
7
100
AcDbSpline
 70
8
 71
3
 72
8
 73
4
 74
0
 40
0
 40
0
 40
0
 40
0
 40
1
 40
1
 40
1
 40
1
 10
403.848360
 20
320.892350
 30
0.0
 10
403.848360
 20
325.032350
 30
0.0
 10
400.488160
 20
328.392350
 30
0.0
 10
396.348360
 20
328.392350
 30
0.0
  0
SPLINE
  5
1d8
100
AcDbEntity
  8
0
 62
7
100
AcDbSpline
 70
8
 71
3
 72
8
 73
4
 74
0
 40
0
 40
0
 40
0
 40
0
 40
1
 40
1
 40
1
 40
1
 10
273.596360
 20
265.647350
 30
0.0
 10
272.492360
 20
265.647350
 30
0.0
 10
271.596360
 20
264.751350
 30
0.0
 10
271.596360
 20
263.647350
 30
0.0
  0
LWPOLYLINE
  5
1d9
100
AcDbEntity
  8
0
 62
7
100
AcDbPolyline
 90
1
 70
1
 10
262.336360
 20
348.142350
 30
0.0
  0
LWPOLYLINE
  5
1da
100
AcDbEntity
  8
0
 62
7
100
AcDbPolyline
 90
2
 70
0
 10
320.098360
 20
334.892350
 30
0.0
 10
320.098360
 20
306.892350
 30
0.0
  0
LWPOLYLINE
  5
1db
100
AcDbEntity
  8
0
 62
7
100
AcDbPolyline
 90
2
 70
0
 10
374.181960
 20
306.918350
 30
0.0
 10
372.271260
 20
306.918350
 30
0.0
  0
LWPOLYLINE
  5
1dc
100
AcDbEntity
  8
0
 62
7
100
AcDbPolyline
 90
1
 70
1
 10
354.348360
 20
335.892350
 30
0.0
  0
SPLINE
  5
1dd
100
AcDbEntity
  8
0
 62
7
100
AcDbSpline
 70
8
 71
3
 72
8
 73
4
 74
0
 40
0
 40
0
 40
0
 40
0
 40
1
 40
1
 40
1
 40
1
 10
338.154960
 20
414.731350
 30
0.0
 10
337.303760
 20
414.969350
 30
0.0
 10
336.421160
 20
414.471350
 30
0.0
 10
336.183660
 20
413.620350
 30
0.0
  0
LWPOLYLINE
  5
1de
100
AcDbEntity
  8
0
 62
7
100
AcDbPolyline
 90
2
 70
0
 10
347.671260
 20
309.918350
 30
0.0
 10
345.671260
 20
309.918350
 30
0.0
  0
LWPOLYLINE
  5
1df
100
AcDbEntity
  8
0
 62
7
100
AcDbPolyline
 90
2
 70
0
 10
386.348360
 20
328.392350
 30
0.0
 10
396.348360
 20
328.392350
 30
0.0
  0
SPLINE
  5
1e0
100
AcDbEntity
  8
0
 62
7
100
AcDbSpline
 70
8
 71
3
 72
8
 73
4
 74
0
 40
0
 40
0
 40
0
 40
0
 40
1
 40
1
 40
1
 40
1
 10
388.848360
 20
275.892350
 30
0.0
 10
388.848360
 20
274.512350
 30
0.0
 10
389.968460
 20
273.392350
 30
0.0
 10
391.348360
 20
273.392350
 30
0.0
  0
LWPOLYLINE
  5
1e1
100
AcDbEntity
  8
0
 62
7
100
AcDbPolyline
 90
2
 70
0
 10
361.848360
 20
331.392350
 30
0.0
 10
361.848360
 20
328.392350
 30
0.0
  0
SPLINE
  5
1e2
100
AcDbEntity
  8
0
 62
7
100
AcDbSpline
 70
8
 71
3
 72
8
 73
4
 74
0
 40
0
 40
0
 40
0
 40
0
 40
1
 40
1
 40
1
 40
1
 10
255.348360
 20
348.142350
 30
0.0
 10
255.348360
 20
348.832350
 30
0.0
 10
254.788360
 20
349.392350
 30
0.0
 10
254.098360
 20
349.392350
 30
0.0
  0
SPLINE
  5
1e3
100
AcDbEntity
  8
0
 62
7
100
AcDbSpline
 70
8
 71
3
 72
8
 73
4
 74
0
 40
0
 40
0
 40
0
 40
0
 40
1
 40
1
 40
1
 40
1
 10
254.098360
 20
349.392350
 30
0.0
 10
253.408360
 20
349.392350
 30
0.0
 10
252.848360
 20
348.832350
 30
0.0
 10
252.848360
 20
348.142350
 30
0.0
  0
SPLINE
  5
1e4
100
AcDbEntity
  8
0
 62
7
100
AcDbSpline
 70
8
 71
3
 72
8
 73
4
 74
0
 40
0
 40
0
 40
0
 40
0
 40
1
 40
1
 40
1
 40
1
 10
252.848360
 20
348.142350
 30
0.0
 10
252.848360
 20
347.452350
 30
0.0
 10
253.408360
 20
346.892350
 30
0.0
 10
254.098360
 20
346.892350
 30
0.0
  0
SPLINE
  5
1e5
100
AcDbEntity
  8
0
 62
7
100
AcDbSpline
 70
8
 71
3
 72
8
 73
4
 74
0
 40
0
 40
0
 40
0
 40
0
 40
1
 40
1
 40
1
 40
1
 10
254.098360
 20
346.892350
 30
0.0
 10
254.788360
 20
346.892350
 30
0.0
 10
255.348360
 20
347.452350
 30
0.0
 10
255.348360
 20
348.142350
 30
0.0
  0
LWPOLYLINE
  5
1e6
100
AcDbEntity
  8
0
 62
7
100
AcDbPolyline
 90
1
 70
1
 10
254.848360
 20
360.392350
 30
0.0
  0
LWPOLYLINE
  5
1e7
100
AcDbEntity
  8
0
 62
7
100
AcDbPolyline
 90
1
 70
1
 10
255.348360
 20
348.142350
 30
0.0
  0
LWPOLYLINE
  5
1e8
100
AcDbEntity
  8
0
 62
7
100
AcDbPolyline
 90
1
 70
1
 10
317.339760
 20
367.892350
 30
0.0
  0
SPLINE
  5
1e9
100
AcDbEntity
  8
0
 62
7
100
AcDbSpline
 70
8
 71
3
 72
8
 73
4
 74
0
 40
0
 40
0
 40
0
 40
0
 40
1
 40
1
 40
1
 40
1
 10
356.348360
 20
348.132350
 30
0.0
 10
356.348360
 20
348.822350
 30
0.0
 10
355.788260
 20
349.382350
 30
0.0
 10
355.098360
 20
349.382350
 30
0.0
  0
SPLINE
  5
1ea
100
AcDbEntity
  8
0
 62
7
100
AcDbSpline
 70
8
 71
3
 72
8
 73
4
 74
0
 40
0
 40
0
 40
0
 40
0
 40
1
 40
1
 40
1
 40
1
 10
355.098360
 20
349.382350
 30
0.0
 10
354.408360
 20
349.382350
 30
0.0
 10
353.848360
 20
348.822350
 30
0.0
 10
353.848360
 20
348.132350
 30
0.0
  0
SPLINE
  5
1eb
100
AcDbEntity
  8
0
 62
7
100
AcDbSpline
 70
8
 71
3
 72
8
 73
4
 74
0
 40
0
 40
0
 40
0
 40
0
 40
1
 40
1
 40
1
 40
1
 10
353.848360
 20
348.132350
 30
0.0
 10
353.848360
 20
347.442350
 30
0.0
 10
354.408360
 20
346.882350
 30
0.0
 10
355.098360
 20
346.882350
 30
0.0
  0
SPLINE
  5
1ec
100
AcDbEntity
  8
0
 62
7
100
AcDbSpline
 70
8
 71
3
 72
8
 73
4
 74
0
 40
0
 40
0
 40
0
 40
0
 40
1
 40
1
 40
1
 40
1
 10
355.098360
 20
346.882350
 30
0.0
 10
355.788260
 20
346.882350
 30
0.0
 10
356.348360
 20
347.442350
 30
0.0
 10
356.348360
 20
348.132350
 30
0.0
  0
LWPOLYLINE
  5
1ed
100
AcDbEntity
  8
0
 62
7
100
AcDbPolyline
 90
2
 70
0
 10
236.671360
 20
270.918350
 30
0.0
 10
236.671360
 20
306.918350
 30
0.0
  0
LWPOLYLINE
  5
1ee
100
AcDbEntity
  8
0
 62
7
100
AcDbPolyline
 90
1
 70
1
 10
356.348360
 20
348.132350
 30
0.0
  0
LWPOLYLINE
  5
1ef
100
AcDbEntity
  8
0
 62
7
100
AcDbPolyline
 90
2
 70
0
 10
335.595860
 20
243.647350
 30
0.0
 10
273.596360
 20
243.647350
 30
0.0
  0
LWPOLYLINE
  5
1f0
100
AcDbEntity
  8
0
 62
7
100
AcDbPolyline
 90
1
 70
1
 10
336.124060
 20
413.169350
 30
0.0
  0
LWPOLYLINE
  5
1f1
100
AcDbEntity
  8
0
 62
7
100
AcDbPolyline
 90
2
 70
0
 10
347.671260
 20
309.918350
 30
0.0
 10
347.671260
 20
312.918350
 30
0.0
  0
LWPOLYLINE
  5
1f2
100
AcDbEntity
  8
0
 62
7
100
AcDbPolyline
 90
2
 70
0
 10
396.848360
 20
335.892350
 30
0.0
 10
396.848360
 20
360.392350
 30
0.0
  0
LWPOLYLINE
  5
1f3
100
AcDbEntity
  8
0
 62
7
100
AcDbPolyline
 90
2
 70
0
 10
258.098360
 20
379.392350
 30
0.0
 10
258.098360
 20
400.392350
 30
0.0
  0
LWPOLYLINE
  5
1f4
100
AcDbEntity
  8
0
 62
7
100
AcDbPolyline
 90
2
 70
0
 10
340.348360
 20
316.392350
 30
0.0
 10
354.348360
 20
316.392350
 30
0.0
  0
LWPOLYLINE
  5
1f5
100
AcDbEntity
  8
0
 62
7
100
AcDbPolyline
 90
1
 70
1
 10
351.348360
 20
360.392350
 30
0.0
  0
SPLINE
  5
1f6
100
AcDbEntity
  8
0
 62
7
100
AcDbSpline
 70
8
 71
3
 72
8
 73
4
 74
0
 40
0
 40
0
 40
0
 40
0
 40
1
 40
1
 40
1
 40
1
 10
377.348360
 20
339.392350
 30
0.0
 10
380.108160
 20
339.392350
 30
0.0
 10
382.348360
 20
341.632350
 30
0.0
 10
382.348360
 20
344.392350
 30
0.0
  0
LWPOLYLINE
  5
1f7
100
AcDbEntity
  8
0
 62
7
100
AcDbPolyline
 90
2
 70
0
 10
234.671360
 20
306.918350
 30
0.0
 10
236.671360
 20
306.918350
 30
0.0
  0
LWPOLYLINE
  5
1f8
100
AcDbEntity
  8
0
 62
7
100
AcDbPolyline
 90
2
 70
0
 10
354.223360
 20
379.392350
 30
0.0
 10
354.223360
 20
374.892350
 30
0.0
  0
LWPOLYLINE
  5
1f9
100
AcDbEntity
  8
0
 62
7
100
AcDbPolyline
 90
2
 70
0
 10
226.848360
 20
344.392350
 30
0.0
 10
226.848360
 20
367.392350
 30
0.0
  0
SPLINE
  5
1fa
100
AcDbEntity
  8
0
 62
7
100
AcDbSpline
 70
8
 71
3
 72
8
 73
4
 74
0
 40
0
 40
0
 40
0
 40
0
 40
1
 40
1
 40
1
 40
1
 10
305.846360
 20
237.147350
 30
0.0
 10
305.846360
 20
237.837350
 30
0.0
 10
305.286360
 20
238.397350
 30
0.0
 10
304.596360
 20
238.397350
 30
0.0
  0
SPLINE
  5
1fb
100
AcDbEntity
  8
0
 62
7
100
AcDbSpline
 70
8
 71
3
 72
8
 73
4
 74
0
 40
0
 40
0
 40
0
 40
0
 40
1
 40
1
 40
1
 40
1
 10
304.596360
 20
238.397350
 30
0.0
 10
303.906360
 20
238.397350
 30
0.0
 10
303.346360
 20
237.837350
 30
0.0
 10
303.346360
 20
237.147350
 30
0.0
  0
SPLINE
  5
1fc
100
AcDbEntity
  8
0
 62
7
100
AcDbSpline
 70
8
 71
3
 72
8
 73
4
 74
0
 40
0
 40
0
 40
0
 40
0
 40
1
 40
1
 40
1
 40
1
 10
303.346360
 20
237.147350
 30
0.0
 10
303.346360
 20
236.457350
 30
0.0
 10
303.906360
 20
235.897350
 30
0.0
 10
304.596360
 20
235.897350
 30
0.0
  0
SPLINE
  5
1fd
100
AcDbEntity
  8
0
 62
7
100
AcDbSpline
 70
8
 71
3
 72
8
 73
4
 74
0
 40
0
 40
0
 40
0
 40
0
 40
1
 40
1
 40
1
 40
1
 10
304.596360
 20
235.897350
 30
0.0
 10
305.286360
 20
235.897350
 30
0.0
 10
305.846360
 20
236.457350
 30
0.0
 10
305.846360
 20
237.147350
 30
0.0
  0
LWPOLYLINE
  5
1fe
100
AcDbEntity
  8
0
 62
7
100
AcDbPolyline
 90
2
 70
0
 10
247.348360
 20
331.392350
 30
0.0
 10
254.848360
 20
331.392350
 30
0.0
  0
LWPOLYLINE
  5
1ff
100
AcDbEntity
  8
0
 62
7
100
AcDbPolyline
 90
1
 70
1
 10
305.846360
 20
237.147350
 30
0.0
  0
LWPOLYLINE
  5
200
100
AcDbEntity
  8
0
 62
7
100
AcDbPolyline
 90
2
 70
0
 10
291.856360
 20
367.892350
 30
0.0
 10
291.856360
 20
364.892350
 30
0.0
  0
LWPOLYLINE
  5
201
100
AcDbEntity
  8
0
 62
7
100
AcDbPolyline
 90
2
 70
0
 10
254.848360
 20
316.392350
 30
0.0
 10
254.848360
 20
331.392350
 30
0.0
  0
SPLINE
  5
202
100
AcDbEntity
  8
0
 62
7
100
AcDbSpline
 70
8
 71
3
 72
8
 73
4
 74
0
 40
0
 40
0
 40
0
 40
0
 40
1
 40
1
 40
1
 40
1
 10
289.098360
 20
306.892350
 30
0.0
 10
289.098360
 20
304.132350
 30
0.0
 10
291.338360
 20
301.892350
 30
0.0
 10
294.098360
 20
301.892350
 30
0.0
  0
LWPOLYLINE
  5
203
100
AcDbEntity
  8
0
 62
7
100
AcDbPolyline
 90
2
 70
0
 10
268.883360
 20
335.892350
 30
0.0
 10
268.883360
 20
360.592350
 30
0.0
  0
LWPOLYLINE
  5
204
100
AcDbEntity
  8
0
 62
7
100
AcDbPolyline
 90
2
 70
0
 10
317.346460
 20
273.901350
 30
0.0
 10
340.345860
 20
273.897350
 30
0.0
  0
LWPOLYLINE
  5
205
100
AcDbEntity
  8
0
 62
7
100
AcDbPolyline
 90
2
 70
0
 10
254.848360
 20
367.892350
 30
0.0
 10
291.856360
 20
367.892350
 30
0.0
  0
LWPOLYLINE
  5
206
100
AcDbEntity
  8
0
 62
7
100
AcDbPolyline
 90
2
 70
0
 10
351.098360
 20
374.892350
 30
0.0
 10
354.223360
 20
374.892350
 30
0.0
  0
SPLINE
  5
207
100
AcDbEntity
  8
0
 62
7
100
AcDbSpline
 70
8
 71
3
 72
8
 73
4
 74
0
 40
0
 40
0
 40
0
 40
0
 40
1
 40
1
 40
1
 40
1
 10
325.011260
 20
351.292350
 30
0.0
 10
325.721160
 20
351.302350
 30
0.0
 10
326.339660
 20
351.779350
 30
0.0
 10
326.530160
 20
352.463350
 30
0.0
  0
LWPOLYLINE
  5
208
100
AcDbEntity
  8
0
 62
7
100
AcDbPolyline
 90
2
 70
0
 10
351.098360
 20
399.392350
 30
0.0
 10
351.098360
 20
374.892350
 30
0.0
  0
SPLINE
  5
209
100
AcDbEntity
  8
0
 62
7
100
AcDbSpline
 70
8
 71
3
 72
8
 73
4
 74
0
 40
0
 40
0
 40
0
 40
0
 40
1
 40
1
 40
1
 40
1
 10
322.842360
 20
289.178350
 30
0.0
 10
322.613760
 20
288.325350
 30
0.0
 10
323.120460
 20
287.447350
 30
0.0
 10
323.974060
 20
287.219350
 30
0.0
  0
LWPOLYLINE
  5
20a
100
AcDbEntity
  8
0
 62
7
100
AcDbPolyline
 90
2
 70
0
 10
347.671260
 20
265.018350
 30
0.0
 10
372.271260
 20
265.018350
 30
0.0
  0
LWPOLYLINE
  5
20b
100
AcDbEntity
  8
0
 62
7
100
AcDbPolyline
 90
2
 70
0
 10
274.229360
 20
458.965350
 30
0.0
 10
293.107360
 20
459.039350
 30
0.0
  0
LWPOLYLINE
  5
20c
100
AcDbEntity
  8
0
 62
7
100
AcDbPolyline
 90
2
 70
0
 10
254.880860
 20
374.892350
 30
0.0
 10
258.101890
 20
374.892350
 30
0.0
  0
LWPOLYLINE
  5
20d
100
AcDbEntity
  8
0
 62
7
100
AcDbPolyline
 90
2
 70
0
 10
268.848360
 20
273.892350
 30
0.0
 10
291.846360
 20
273.897350
 30
0.0
  0
SPLINE
  5
20e
100
AcDbEntity
  8
0
 62
7
100
AcDbSpline
 70
8
 71
3
 72
8
 73
4
 74
0
 40
0
 40
0
 40
0
 40
0
 40
1
 40
1
 40
1
 40
1
 10
324.801960
 20
290.310350
 30
0.0
 10
323.948460
 20
290.538350
 30
0.0
 10
323.071160
 20
290.032350
 30
0.0
 10
322.842360
 20
289.178350
 30
0.0
  0
SPLINE
  5
20f
100
AcDbEntity
  8
0
 62
7
100
AcDbSpline
 70
8
 71
3
 72
8
 73
4
 74
0
 40
0
 40
0
 40
0
 40
0
 40
1
 40
1
 40
1
 40
1
 10
283.925360
 20
289.184350
 30
0.0
 10
283.696360
 20
288.331350
 30
0.0
 10
284.203360
 20
287.453350
 30
0.0
 10
285.056360
 20
287.224350
 30
0.0
  0
LWPOLYLINE
  5
210
100
AcDbEntity
  8
0
 62
7
100
AcDbPolyline
 90
2
 70
0
 10
292.596360
 20
232.397350
 30
0.0
 10
316.595860
 20
232.397350
 30
0.0
  0
LWPOLYLINE
  5
211
100
AcDbEntity
  8
0
 62
7
100
AcDbPolyline
 90
2
 70
0
 10
291.846360
 20
276.897350
 30
0.0
 10
291.846360
 20
273.897350
 30
0.0
  0
SPLINE
  5
212
100
AcDbEntity
  8
0
 62
7
100
AcDbSpline
 70
8
 71
3
 72
8
 73
4
 74
0
 40
0
 40
0
 40
0
 40
0
 40
1
 40
1
 40
1
 40
1
 10
306.098360
 20
280.142350
 30
0.0
 10
306.098360
 20
280.970350
 30
0.0
 10
305.426360
 20
281.642350
 30
0.0
 10
304.598360
 20
281.642350
 30
0.0
  0
SPLINE
  5
213
100
AcDbEntity
  8
0
 62
7
100
AcDbSpline
 70
8
 71
3
 72
8
 73
4
 74
0
 40
0
 40
0
 40
0
 40
0
 40
1
 40
1
 40
1
 40
1
 10
304.598360
 20
281.642350
 30
0.0
 10
303.770360
 20
281.642350
 30
0.0
 10
303.098360
 20
280.970350
 30
0.0
 10
303.098360
 20
280.142350
 30
0.0
  0
SPLINE
  5
214
100
AcDbEntity
  8
0
 62
7
100
AcDbSpline
 70
8
 71
3
 72
8
 73
4
 74
0
 40
0
 40
0
 40
0
 40
0
 40
1
 40
1
 40
1
 40
1
 10
303.098360
 20
280.142350
 30
0.0
 10
303.098360
 20
279.314350
 30
0.0
 10
303.770360
 20
278.642350
 30
0.0
 10
304.598360
 20
278.642350
 30
0.0
  0
SPLINE
  5
215
100
AcDbEntity
  8
0
 62
7
100
AcDbSpline
 70
8
 71
3
 72
8
 73
4
 74
0
 40
0
 40
0
 40
0
 40
0
 40
1
 40
1
 40
1
 40
1
 10
304.598360
 20
278.642350
 30
0.0
 10
305.426360
 20
278.642350
 30
0.0
 10
306.098360
 20
279.314350
 30
0.0
 10
306.098360
 20
280.142350
 30
0.0
  0
LWPOLYLINE
  5
216
100
AcDbEntity
  8
0
 62
7
100
AcDbPolyline
 90
2
 70
0
 10
340.345860
 20
273.897350
 30
0.0
 10
340.345860
 20
233.897350
 30
0.0
  0
LWPOLYLINE
  5
217
100
AcDbEntity
  8
0
 62
7
100
AcDbPolyline
 90
1
 70
1
 10
306.098360
 20
280.142350
 30
0.0
  0
LWPOLYLINE
  5
218
100
AcDbEntity
  8
0
 62
7
100
AcDbPolyline
 90
2
 70
0
 10
354.348360
 20
335.892350
 30
0.0
 10
354.348360
 20
331.392350
 30
0.0
  0
LWPOLYLINE
  5
219
100
AcDbEntity
  8
0
 62
7
100
AcDbPolyline
 90
2
 70
0
 10
347.671260
 20
267.918350
 30
0.0
 10
345.671260
 20
267.918350
 30
0.0
  0
LWPOLYLINE
  5
21a
100
AcDbEntity
  8
0
 62
7
100
AcDbPolyline
 90
2
 70
0
 10
247.848360
 20
367.392350
 30
0.0
 10
247.848360
 20
344.392350
 30
0.0
  0
LWPOLYLINE
  5
21b
100
AcDbEntity
  8
0
 62
7
100
AcDbPolyline
 90
2
 70
0
 10
337.383160
 20
360.592350
 30
0.0
 10
337.383160
 20
335.892350
 30
0.0
  0
LWPOLYLINE
  5
21c
100
AcDbEntity
  8
0
 62
7
100
AcDbPolyline
 90
2
 70
0
 10
347.671260
 20
265.018350
 30
0.0
 10
347.671260
 20
267.918350
 30
0.0
  0
LWPOLYLINE
  5
21d
100
AcDbEntity
  8
0
 62
7
100
AcDbPolyline
 90
2
 70
0
 10
354.223360
 20
367.905350
 30
0.0
 10
354.223360
 20
374.892350
 30
0.0
  0
LWPOLYLINE
  5
21e
100
AcDbEntity
  8
0
 62
7
100
AcDbPolyline
 90
2
 70
0
 10
257.848360
 20
360.392350
 30
0.0
 10
257.848360
 20
335.892350
 30
0.0
  0
LWPOLYLINE
  5
21f
100
AcDbEntity
  8
0
 62
7
100
AcDbPolyline
 90
2
 70
0
 10
316.595860
 20
232.397350
 30
0.0
 10
316.595860
 20
233.897350
 30
0.0
  0
SPLINE
  5
220
100
AcDbEntity
  8
0
 62
7
100
AcDbSpline
 70
8
 71
3
 72
8
 73
4
 74
0
 40
0
 40
0
 40
0
 40
0
 40
1
 40
1
 40
1
 40
1
 10
305.846360
 20
272.147350
 30
0.0
 10
305.846360
 20
272.837350
 30
0.0
 10
305.286360
 20
273.397350
 30
0.0
 10
304.596360
 20
273.397350
 30
0.0
  0
SPLINE
  5
221
100
AcDbEntity
  8
0
 62
7
100
AcDbSpline
 70
8
 71
3
 72
8
 73
4
 74
0
 40
0
 40
0
 40
0
 40
0
 40
1
 40
1
 40
1
 40
1
 10
304.596360
 20
273.397350
 30
0.0
 10
303.906360
 20
273.397350
 30
0.0
 10
303.346360
 20
272.837350
 30
0.0
 10
303.346360
 20
272.147350
 30
0.0
  0
SPLINE
  5
222
100
AcDbEntity
  8
0
 62
7
100
AcDbSpline
 70
8
 71
3
 72
8
 73
4
 74
0
 40
0
 40
0
 40
0
 40
0
 40
1
 40
1
 40
1
 40
1
 10
303.346360
 20
272.147350
 30
0.0
 10
303.346360
 20
271.457350
 30
0.0
 10
303.906360
 20
270.897350
 30
0.0
 10
304.596360
 20
270.897350
 30
0.0
  0
SPLINE
  5
223
100
AcDbEntity
  8
0
 62
7
100
AcDbSpline
 70
8
 71
3
 72
8
 73
4
 74
0
 40
0
 40
0
 40
0
 40
0
 40
1
 40
1
 40
1
 40
1
 10
304.596360
 20
270.897350
 30
0.0
 10
305.286360
 20
270.897350
 30
0.0
 10
305.846360
 20
271.457350
 30
0.0
 10
305.846360
 20
272.147350
 30
0.0
  0
LWPOLYLINE
  5
224
100
AcDbEntity
  8
0
 62
7
100
AcDbPolyline
 90
2
 70
0
 10
317.346460
 20
273.901350
 30
0.0
 10
317.347060
 20
276.897350
 30
0.0
  0
SPLINE
  5
225
100
AcDbEntity
  8
0
 62
7
100
AcDbSpline
 70
8
 71
3
 72
8
 73
4
 74
0
 40
0
 40
0
 40
0
 40
0
 40
1
 40
1
 40
1
 40
1
 10
320.098360
 20
334.892350
 30
0.0
 10
320.098360
 20
337.652350
 30
0.0
 10
317.858160
 20
339.892350
 30
0.0
 10
315.098360
 20
339.892350
 30
0.0
  0
LWPOLYLINE
  5
226
100
AcDbEntity
  8
0
 62
7
100
AcDbPolyline
 90
1
 70
1
 10
305.846360
 20
272.147350
 30
0.0
  0
LWPOLYLINE
  5
227
100
AcDbEntity
  8
0
 62
7
100
AcDbPolyline
 90
2
 70
0
 10
317.339760
 20
367.892350
 30
0.0
 10
354.223360
 20
367.905350
 30
0.0
  0
LWPOLYLINE
  5
228
100
AcDbEntity
  8
0
 62
7
100
AcDbPolyline
 90
1
 70
1
 10
340.345860
 20
273.892350
 30
0.0
  0
SPLINE
  5
229
100
AcDbEntity
  8
0
 62
7
100
AcDbSpline
 70
8
 71
3
 72
8
 73
4
 74
0
 40
0
 40
0
 40
0
 40
0
 40
1
 40
1
 40
1
 40
1
 10
294.098360
 20
339.892350
 30
0.0
 10
291.338360
 20
339.892350
 30
0.0
 10
289.098360
 20
337.652350
 30
0.0
 10
289.098360
 20
334.892350
 30
0.0
  0
LWPOLYLINE
  5
22a
100
AcDbEntity
  8
0
 62
7
100
AcDbPolyline
 90
2
 70
0
 10
247.348360
 20
331.392350
 30
0.0
 10
247.348360
 20
328.392350
 30
0.0
  0
LWPOLYLINE
  5
22b
100
AcDbEntity
  8
0
 62
7
100
AcDbPolyline
 90
2
 70
0
 10
316.595860
 20
233.897350
 30
0.0
 10
340.345860
 20
233.897350
 30
0.0
  0
LWPOLYLINE
  5
22c
100
AcDbEntity
  8
0
 62
7
100
AcDbPolyline
 90
2
 70
0
 10
254.848360
 20
360.392350
 30
0.0
 10
257.848360
 20
360.392350
 30
0.0
  0
LWPOLYLINE
  5
22d
100
AcDbEntity
  8
0
 62
7
100
AcDbPolyline
 90
2
 70
0
 10
351.348360
 20
360.392350
 30
0.0
 10
354.223360
 20
360.392350
 30
0.0
  0
LWPOLYLINE
  5
22e
100
AcDbEntity
  8
0
 62
7
100
AcDbPolyline
 90
2
 70
0
 10
317.339760
 20
367.892350
 30
0.0
 10
317.332760
 20
364.892350
 30
0.0
  0
SPLINE
  5
22f
100
AcDbEntity
  8
0
 62
7
100
AcDbSpline
 70
8
 71
3
 72
8
 73
4
 74
0
 40
0
 40
0
 40
0
 40
0
 40
1
 40
1
 40
1
 40
1
 10
315.098360
 20
301.892350
 30
0.0
 10
317.858160
 20
301.892350
 30
0.0
 10
320.098360
 20
304.132350
 30
0.0
 10
320.098360
 20
306.892350
 30
0.0
  0
LWPOLYLINE
  5
230
100
AcDbEntity
  8
0
 62
7
100
AcDbPolyline
 90
2
 70
0
 10
291.846360
 20
276.897350
 30
0.0
 10
317.347060
 20
276.897350
 30
0.0
  0
LWPOLYLINE
  5
231
100
AcDbEntity
  8
0
 62
7
100
AcDbPolyline
 90
2
 70
0
 10
212.348360
 20
335.892350
 30
0.0
 10
212.348360
 20
360.392350
 30
0.0
  0
LWPOLYLINE
  5
232
100
AcDbEntity
  8
0
 62
7
100
AcDbPolyline
 90
2
 70
0
 10
347.671260
 20
312.918350
 30
0.0
 10
372.271260
 20
312.918350
 30
0.0
  0
LWPOLYLINE
  5
233
100
AcDbEntity
  8
0
 62
7
100
AcDbPolyline
 90
3
 70
0
 10
354.348360
 20
335.892350
 30
0.0
 10
351.348360
 20
335.892350
 30
0.0
 10
351.348360
 20
335.892350
 30
0.0
  0
LWPOLYLINE
  5
234
100
AcDbEntity
  8
0
 62
7
100
AcDbPolyline
 90
1
 70
1
 10
351.348360
 20
360.392350
 30
0.0
  0
LWPOLYLINE
  5
235
100
AcDbEntity
  8
0
 62
7
100
AcDbPolyline
 90
2
 70
0
 10
354.348360
 20
331.392350
 30
0.0
 10
361.848360
 20
331.392350
 30
0.0
  0
LWPOLYLINE
  5
236
100
AcDbEntity
  8
0
 62
7
100
AcDbPolyline
 90
2
 70
0
 10
340.383160
 20
335.892350
 30
0.0
 10
340.383160
 20
360.592350
 30
0.0
  0
LWPOLYLINE
  5
237
100
AcDbEntity
  8
0
 62
7
100
AcDbPolyline
 90
2
 70
0
 10
354.223360
 20
360.392350
 30
0.0
 10
354.223360
 20
367.905350
 30
0.0
  0
LWPOLYLINE
  5
238
100
AcDbEntity
  8
0
 62
7
100
AcDbPolyline
 90
2
 70
0
 10
271.883360
 20
360.592350
 30
0.0
 10
271.883360
 20
335.892350
 30
0.0
  0
LWPOLYLINE
  5
239
100
AcDbEntity
  8
0
 62
7
100
AcDbPolyline
 90
3
 70
0
 10
254.850360
 20
374.892350
 30
0.0
 10
254.848360
 20
367.892350
 30
0.0
 10
254.848360
 20
360.392350
 30
0.0
  0
SPLINE
  5
23a
100
AcDbEntity
  8
0
 62
7
100
AcDbSpline
 70
8
 71
3
 72
8
 73
4
 74
0
 40
0
 40
0
 40
0
 40
0
 40
1
 40
1
 40
1
 40
1
 10
285.508360
 20
287.170350
 30
0.0
 10
286.218360
 20
287.187350
 30
0.0
 10
286.832360
 20
287.670350
 30
0.0
 10
287.016360
 20
288.356350
 30
0.0
  0
SPLINE
  5
23b
100
AcDbEntity
  8
0
 62
7
100
AcDbSpline
 70
8
 71
3
 72
8
 73
4
 74
0
 40
0
 40
0
 40
0
 40
0
 40
1
 40
1
 40
1
 40
1
 10
326.530160
 20
352.463350
 30
0.0
 10
326.767660
 20
353.314350
 30
0.0
 10
326.270160
 20
354.197350
 30
0.0
 10
325.418960
 20
354.434350
 30
0.0
  0
LWPOLYLINE
  5
23c
100
AcDbEntity
  8
0
 62
7
100
AcDbPolyline
 90
2
 70
0
 10
254.838360
 20
379.345650
 30
0.0
 10
254.838360
 20
374.845650
 30
0.0
  0
LWPOLYLINE
  5
23d
100
AcDbEntity
  8
0
 62
7
100
AcDbPolyline
 90
2
 70
0
 10
351.348360
 20
360.392350
 30
0.0
 10
351.348360
 20
335.892350
 30
0.0
  0
LWPOLYLINE
  5
23e
100
AcDbEntity
  8
0
 62
7
100
AcDbPolyline
 90
2
 70
0
 10
254.848360
 20
335.892350
 30
0.0
 10
254.848360
 20
331.392350
 30
0.0
  0
LWPOLYLINE
  5
23f
100
AcDbEntity
  8
0
 62
7
100
AcDbPolyline
 90
2
 70
0
 10
291.856360
 20
364.892350
 30
0.0
 10
317.332260
 20
364.892350
 30
0.0
  0
LWPOLYLINE
  5
240
100
AcDbEntity
  8
0
 62
7
100
AcDbPolyline
 90
2
 70
0
 10
258.098360
 20
379.392350
 30
0.0
 10
258.098360
 20
374.892350
 30
0.0
  0
LWPOLYLINE
  5
241
100
AcDbEntity
  8
0
 62
7
100
AcDbPolyline
 90
2
 70
0
 10
292.596360
 20
232.397350
 30
0.0
 10
292.596360
 20
233.897350
 30
0.0
  0
LWPOLYLINE
  5
242
100
AcDbEntity
  8
0
 62
7
100
AcDbPolyline
 90
2
 70
0
 10
257.848360
 20
335.892350
 30
0.0
 10
254.848360
 20
335.892350
 30
0.0
  0
SPLINE
  5
243
100
AcDbEntity
  8
0
 62
7
100
AcDbSpline
 70
8
 71
3
 72
8
 73
4
 74
0
 40
0
 40
0
 40
0
 40
0
 40
1
 40
1
 40
1
 40
1
 10
285.885360
 20
290.315350
 30
0.0
 10
285.031360
 20
290.544350
 30
0.0
 10
284.154360
 20
290.037350
 30
0.0
 10
283.925360
 20
289.184350
 30
0.0
  0
SPLINE
  5
244
100
AcDbEntity
  8
0
 62
7
100
AcDbSpline
 70
8
 71
3
 72
8
 73
4
 74
0
 40
0
 40
0
 40
0
 40
0
 40
1
 40
1
 40
1
 40
1
 10
285.073360
 20
351.236350
 30
0.0
 10
285.220360
 20
351.196350
 30
0.0
 10
285.372360
 20
351.178350
 30
0.0
 10
285.525360
 20
351.182350
 30
0.0
  0
SPLINE
  5
245
100
AcDbEntity
  8
0
 62
7
100
AcDbSpline
 70
8
 71
3
 72
8
 73
4
 74
0
 40
0
 40
0
 40
0
 40
0
 40
1
 40
1
 40
1
 40
1
 10
283.941360
 20
353.196350
 30
0.0
 10
283.712360
 20
352.342350
 30
0.0
 10
284.219360
 20
351.465350
 30
0.0
 10
285.073360
 20
351.236350
 30
0.0
  0
LWPOLYLINE
  5
246
100
AcDbEntity
  8
0
 62
7
100
AcDbPolyline
 90
2
 70
0
 10
255.098360
 20
407.505350
 30
0.0
 10
354.098360
 20
407.526350
 30
0.0
  0
SPLINE
  5
247
100
AcDbEntity
  8
0
 62
7
100
AcDbSpline
 70
8
 71
3
 72
8
 73
4
 74
0
 40
0
 40
0
 40
0
 40
0
 40
1
 40
1
 40
1
 40
1
 10
323.445860
 20
353.327350
 30
0.0
 10
323.208260
 20
352.476350
 30
0.0
 10
323.705760
 20
351.593350
 30
0.0
 10
324.556960
 20
351.355350
 30
0.0
  0
SPLINE
  5
248
100
AcDbEntity
  8
0
 62
7
100
AcDbSpline
 70
8
 71
3
 72
8
 73
4
 74
0
 40
0
 40
0
 40
0
 40
0
 40
1
 40
1
 40
1
 40
1
 10
287.016360
 20
288.356350
 30
0.0
 10
287.244360
 20
289.209350
 30
0.0
 10
286.738360
 20
290.086350
 30
0.0
 10
285.885360
 20
290.315350
 30
0.0
  0
SPLINE
  5
249
100
AcDbEntity
  8
0
 62
7
100
AcDbSpline
 70
8
 71
3
 72
8
 73
4
 74
0
 40
0
 40
0
 40
0
 40
0
 40
1
 40
1
 40
1
 40
1
 10
325.933660
 20
288.350350
 30
0.0
 10
326.162360
 20
289.204350
 30
0.0
 10
325.655660
 20
290.081350
 30
0.0
 10
324.801960
 20
290.310350
 30
0.0
  0
SPLINE
  5
24a
100
AcDbEntity
  8
0
 62
7
100
AcDbSpline
 70
8
 71
3
 72
8
 73
4
 74
0
 40
0
 40
0
 40
0
 40
0
 40
1
 40
1
 40
1
 40
1
 10
324.556960
 20
351.355350
 30
0.0
 10
324.703860
 20
351.314350
 30
0.0
 10
324.855960
 20
351.294350
 30
0.0
 10
325.008460
 20
351.296350
 30
0.0
  0
LWPOLYLINE
  5
24b
100
AcDbEntity
  8
0
 62
7
100
AcDbPolyline
 90
2
 70
0
 10
341.728660
 20
454.405350
 30
0.0
 10
341.728660
 20
412.509350
 30
0.0
  0
SPLINE
  5
24c
100
AcDbEntity
  8
0
 62
7
100
AcDbSpline
 70
8
 71
3
 72
8
 73
4
 74
0
 40
0
 40
0
 40
0
 40
0
 40
1
 40
1
 40
1
 40
1
 10
285.901360
 20
354.327350
 30
0.0
 10
285.047360
 20
354.555350
 30
0.0
 10
284.170360
 20
354.049350
 30
0.0
 10
283.941360
 20
353.196350
 30
0.0
  0
SPLINE
  5
24d
100
AcDbEntity
  8
0
 62
7
100
AcDbSpline
 70
8
 71
3
 72
8
 73
4
 74
0
 40
0
 40
0
 40
0
 40
0
 40
1
 40
1
 40
1
 40
1
 10
325.418960
 20
354.434350
 30
0.0
 10
324.568260
 20
354.673350
 30
0.0
 10
323.684960
 20
354.177350
 30
0.0
 10
323.445860
 20
353.327350
 30
0.0
  0
LWPOLYLINE
  5
24e
100
AcDbEntity
  8
0
 62
7
100
AcDbPolyline
 90
2
 70
0
 10
269.687360
 20
454.410350
 30
0.0
 10
269.643360
 20
412.514350
 30
0.0
  0
SPLINE
  5
24f
100
AcDbEntity
  8
0
 62
7
100
AcDbSpline
 70
8
 71
3
 72
8
 73
4
 74
0
 40
0
 40
0
 40
0
 40
0
 40
1
 40
1
 40
1
 40
1
 10
285.525360
 20
351.182350
 30
0.0
 10
286.235360
 20
351.199350
 30
0.0
 10
286.849360
 20
351.681350
 30
0.0
 10
287.032360
 20
352.367350
 30
0.0
  0
SPLINE
  5
250
100
AcDbEntity
  8
0
 62
7
100
AcDbSpline
 70
8
 71
3
 72
8
 73
4
 74
0
 40
0
 40
0
 40
0
 40
0
 40
1
 40
1
 40
1
 40
1
 10
336.728660
 20
407.509350
 30
0.0
 10
339.488560
 20
407.509350
 30
0.0
 10
341.728660
 20
409.749350
 30
0.0
 10
341.728660
 20
412.509350
 30
0.0
  0
SPLINE
  5
251
100
AcDbEntity
  8
0
 62
7
100
AcDbSpline
 70
8
 71
3
 72
8
 73
4
 74
0
 40
0
 40
0
 40
0
 40
0
 40
1
 40
1
 40
1
 40
1
 10
287.032360
 20
352.367350
 30
0.0
 10
287.261360
 20
353.221350
 30
0.0
 10
286.754360
 20
354.098350
 30
0.0
 10
285.901360
 20
354.327350
 30
0.0
  0
LWPOLYLINE
  5
252
100
AcDbEntity
  8
0
 62
7
100
AcDbPolyline
 90
1
 70
1
 10
325.008460
 20
351.296350
 30
0.0
  0
SPLINE
  5
253
100
AcDbEntity
  8
0
 62
7
100
AcDbSpline
 70
8
 71
3
 72
8
 73
4
 74
0
 40
0
 40
0
 40
0
 40
0
 40
1
 40
1
 40
1
 40
1
 10
269.643360
 20
412.509350
 30
0.0
 10
269.643360
 20
409.749350
 30
0.0
 10
271.883360
 20
407.509350
 30
0.0
 10
274.643360
 20
407.509350
 30
0.0
  0
SPLINE
  5
254
100
AcDbEntity
  8
0
 62
7
100
AcDbSpline
 70
8
 71
3
 72
8
 73
4
 74
0
 40
0
 40
0
 40
0
 40
0
 40
1
 40
1
 40
1
 40
1
 10
285.056360
 20
287.224350
 30
0.0
 10
285.204360
 20
287.185350
 30
0.0
 10
285.356360
 20
287.167350
 30
0.0
 10
285.508360
 20
287.170350
 30
0.0
  0
SPLINE
  5
255
100
AcDbEntity
  8
0
 62
7
100
AcDbSpline
 70
8
 71
3
 72
8
 73
4
 74
0
 40
0
 40
0
 40
0
 40
0
 40
1
 40
1
 40
1
 40
1
 10
324.426260
 20
287.164350
 30
0.0
 10
325.136060
 20
287.181350
 30
0.0
 10
325.749860
 20
287.664350
 30
0.0
 10
325.933660
 20
288.350350
 30
0.0
  0
SPLINE
  5
256
100
AcDbEntity
  8
0
 62
7
100
AcDbSpline
 70
8
 71
3
 72
8
 73
4
 74
0
 40
0
 40
0
 40
0
 40
0
 40
1
 40
1
 40
1
 40
1
 10
323.974060
 20
287.219350
 30
0.0
 10
324.121460
 20
287.179350
 30
0.0
 10
324.273760
 20
287.161350
 30
0.0
 10
324.426260
 20
287.164350
 30
0.0
  0
LWPOLYLINE
  5
257
100
AcDbEntity
  8
0
 62
7
100
AcDbPolyline
 90
2
 70
0
 10
269.643360
 20
412.515350
 30
0.0
 10
269.643360
 20
412.509350
 30
0.0
  0
ENDSEC
  0
SECTION
  2
OBJECTS
  0
DICTIONARY
  5
C
330
0
100
AcDbDictionary
  3
ACAD_GROUP
350
D
  3
ACAD_MLINESTYLE
350
17
  0
DICTIONARY
  5
D
330
C
100
AcDbDictionary
  0
DICTIONARY
  5
1A
330
C
100
AcDbDictionary
  0
DICTIONARY
  5
17
330
C
100
AcDbDictionary
  3
STANDARD
350
18
  0
DICTIONARY
  5
19
330
C
100
AcDbDictionary
  0
ENDSEC
  0
EOF
